<?xml version="1.0" encoding="UTF-8" standalone="no"?>
<!-- Created with Inkscape (http://www.inkscape.org/) -->

<svg
   xmlns:dc="http://purl.org/dc/elements/1.1/"
   xmlns:cc="http://creativecommons.org/ns#"
   xmlns:rdf="http://www.w3.org/1999/02/22-rdf-syntax-ns#"
   xmlns:svg="http://www.w3.org/2000/svg"
   xmlns="http://www.w3.org/2000/svg"
   xmlns:sodipodi="http://sodipodi.sourceforge.net/DTD/sodipodi-0.dtd"
   xmlns:inkscape="http://www.inkscape.org/namespaces/inkscape"
   id="svg5194"
   version="1.1"
   inkscape:version="0.91 r13725"
   xml:space="preserve"
   width="625"
   height="625"
   viewBox="0 0 625 625"
   sodipodi:docname="good.svg"><metadata
     id="metadata5200"><rdf:RDF><cc:Work
         rdf:about=""><dc:format>image/svg+xml</dc:format><dc:type
           rdf:resource="http://purl.org/dc/dcmitype/StillImage" /><dc:title></dc:title></cc:Work></rdf:RDF></metadata><defs
     id="defs5198"><clipPath
       clipPathUnits="userSpaceOnUse"
       id="clipPath5468"><path
         d="m 3879.08,1852 c 2.1,15.45 0.44,40.62 -23.52,46.57 -33.15,6.56 -62.65,-8.26 -65.56,-30.16 5.56,-23.28 47.27,-50.9 66.13,-24.4 11.52,13.1 22.95,7.99 22.95,7.99"
         id="path5470"
         inkscape:connector-curvature="0" /></clipPath><clipPath
       clipPathUnits="userSpaceOnUse"
       id="clipPath5502"><path
         d="m 3657.41,1875.78 c 3.25,10.45 -2.93,28.58 -16.49,30.93 -31.39,5.8 -58.08,7.26 -86.53,-15.53 1.38,-23 7.91,-41.18 18.75,-48.03 10.83,-6.85 70.32,-12.26 84.27,32.63"
         id="path5504"
         inkscape:connector-curvature="0" /></clipPath><clipPath
       clipPathUnits="userSpaceOnUse"
       id="clipPath5622"><path
         d="m 3472.45,4006.82 c -2.89,15.32 -2.44,61.95 21.18,69.1 32.78,8.25 62.93,-5.86 66.95,-48.17 -4.36,-23.54 -44.61,-53.24 -64.8,-27.74 -12.16,12.5 -23.33,6.81 -23.33,6.81"
         id="path5624"
         inkscape:connector-curvature="0" /></clipPath><clipPath
       clipPathUnits="userSpaceOnUse"
       id="clipPath5660"><path
         d="m 3692.35,4039.67 c -4.26,10.09 1.43,18.84 14.69,22.52 30.67,8.85 55.76,22.8 86.32,2.92 0.89,-23.02 -3.83,-41.75 -13.94,-49.64 -10.12,-7.88 -68.78,-19.09 -87.07,24.2"
         id="path5662"
         inkscape:connector-curvature="0" /></clipPath></defs><sodipodi:namedview
     pagecolor="#ffffff"
     bordercolor="#666666"
     borderopacity="1"
     objecttolerance="10"
     gridtolerance="10"
     guidetolerance="10"
     inkscape:pageopacity="0"
     inkscape:pageshadow="2"
     inkscape:window-width="1105"
     inkscape:window-height="716"
     id="namedview5196"
     showgrid="false"
     inkscape:zoom="0.57275649"
     inkscape:cx="255.02928"
     inkscape:cy="413.42729"
     inkscape:window-x="65"
     inkscape:window-y="24"
     inkscape:window-maximized="0"
     inkscape:current-layer="g5202" /><g
     id="g5202"
     inkscape:groupmode="layer"
     inkscape:label="ink_ext_XXXXXX"
     transform="matrix(1.25,0,0,-1.25,0,625)"><g
       id="g6924"
       transform="matrix(2.5924546,0,0,2.4249391,-696.53335,-642.56872)"><path
         inkscape:connector-curvature="0"
         id="path5524"
         style="fill:#782121;fill-opacity:1;fill-rule:nonzero;stroke:none"
         d="m 2821.48,3757.19 c 0,-472.31 382.88,-855.18 855.18,-855.18 472.31,0 855.18,382.87 855.18,855.18 0,472.29 -382.87,855.18 -855.18,855.18 -472.3,0 -855.18,-382.89 -855.18,-855.18"
         transform="scale(0.1,0.1)" /><path
         inkscape:connector-curvature="0"
         id="path5526"
         style="fill:#fcd398;fill-opacity:1;fill-rule:nonzero;stroke:none"
         d="m 3002.46,3761.1 c 5.48,10.4 11.02,20.49 20.03,27.77 4.94,-19.99 21.79,-39.79 32.98,-53.96 16.01,-20.26 40.59,-30.93 65.23,-32.04 -7.08,-32.82 -54.43,-28.11 -80.9,-21.68 -20.74,5.04 -27.45,20.79 -34.16,40.04 -4.62,13.25 -10.09,26.79 -3.18,39.87"
         transform="scale(0.1,0.1)" /><path
         inkscape:connector-curvature="0"
         id="path5528"
         style="fill:#fcd398;fill-opacity:1;fill-rule:nonzero;stroke:none"
         d="m 3016.72,3641.93 c -22.84,5.37 -31.47,34.3 -36.6,54.09 -2.95,11.36 -2.75,22.96 -0.64,34.43 0.62,3.36 3.02,6.19 5.82,8.92 6.34,-27.46 14.21,-59.11 42.39,-70.68 13.54,-5.55 46.6,-9.21 72.76,-4.21 -9.83,-27.68 -59.76,-28.19 -83.73,-22.55"
         transform="scale(0.1,0.1)" /><path
         inkscape:connector-curvature="0"
         id="path5530"
         style="fill:#fcd398;fill-opacity:1;fill-rule:nonzero;stroke:none"
         d="m 3157.34,3550.18 c -1.95,3.21 -4.59,6.24 -6.42,9.04 -3.08,4.69 -5.41,9.46 -7.58,14.36 5.23,0.93 47.47,13.71 55.39,25.35 3.77,-0.37 7.5,-0.58 11.17,-0.47 8.84,0.23 6.2,8.75 -2.67,8.52 -27.06,-0.7 -46.51,9.11 -65.79,29.15 -2.19,2.28 -6.25,-0.74 -4.43,-3.42 10.63,-15.6 28.38,-26.1 47.1,-31.02 -27,-8.68 -58.95,-19.64 -86.47,-12.95 -24.56,5.96 -42.91,27.37 -66.1,37.76 34.53,-1.63 81.85,8.5 80.35,40.91 17.28,5.77 28.6,16.82 23.36,35.89 28.2,3.09 53.85,18.89 67.77,49.63 5.88,12.98 4.56,25.63 -2.72,37.64 -11.25,18.55 -46.5,30.76 -65.11,16.94 -17.7,8.49 -20.7,15.59 -23.71,22.16 -2.52,5.48 -7.57,4.86 -6.77,-0.29 1.43,-9.18 9.82,-19.16 16.57,-25.27 6.71,-6.09 16.39,-11.84 25.57,-12.21 2.96,-0.13 4.99,4.13 2.54,6.13 -1.14,0.94 -2.36,1.73 -3.55,2.54 18.09,1.2 38.68,-6.25 44.98,-24.37 1.8,-5.16 1.24,-9.83 -0.56,-14.2 0,0 -4.37,-10.57 -17.88,-26.72 -22.45,-22.12 -57.4,-23.82 -88.19,-7.55 -19.96,10.54 -32.97,32.28 -44.69,50.76 -16.38,25.84 18.04,73.48 50.42,73.02 6.56,-6.35 48.74,-24.79 65.22,54.67 6.81,32.84 22.63,61.96 55.19,75.01 16.45,6.6 37.81,6.22 53.91,-0.82 14.38,-6.28 13.55,-11.7 8.86,-17.47 -40.58,-14.19 -66.6,-90.18 -54.04,-124.6 4.54,-12.43 13.14,-23.42 20.38,-34.33 13.06,-19.67 19.33,-39.7 22.19,-62.88 4.75,-38.56 -3.45,-70.09 -17.69,-105.37 -0.62,-1.52 1.35,-2.6 2.56,-1.96 13.66,7.26 21.95,20.61 26.76,36.52 2.31,-5.49 2.75,-11.98 6.22,-16.64 -13.49,-22.28 -68.55,-107.09 -122.14,-103.46"
         transform="scale(0.1,0.1)" /><path
         inkscape:connector-curvature="0"
         id="path5532"
         style="fill:#481834;fill-opacity:1;fill-rule:nonzero;stroke:none"
         d="m 3157.34,3550.18 c -1.95,3.21 -4.59,6.24 -6.42,9.04 -3.08,4.69 -5.41,9.46 -7.58,14.36 5.23,0.93 47.47,13.71 55.39,25.35 3.77,-0.37 7.5,-0.58 11.17,-0.47 8.84,0.23 6.2,8.75 -2.67,8.52 -27.06,-0.7 -46.51,9.11 -65.79,29.15 -2.19,2.28 -6.25,-0.74 -4.43,-3.42 10.63,-15.6 28.38,-26.1 47.1,-31.02 -27,-8.68 -58.95,-19.64 -86.47,-12.95 -24.56,5.96 -53.05,32.05 -60.85,38.21 34.53,-1.63 76.6,8.05 75.1,40.46 17.28,5.77 28.6,16.82 23.36,35.89 28.2,3.09 53.85,18.89 67.77,49.63 5.88,12.98 4.56,25.63 -2.72,37.64 -11.25,18.55 -46.5,30.76 -65.11,16.94 -17.7,8.49 -20.7,15.59 -23.71,22.16 -2.52,5.48 -7.57,4.86 -6.77,-0.29 1.43,-9.18 9.82,-19.16 16.57,-25.27 6.71,-6.09 16.39,-11.84 25.57,-12.21 2.96,-0.13 4.99,4.13 2.54,6.13 -1.14,0.94 -2.36,1.73 -3.55,2.54 18.09,1.2 38.68,-6.25 44.98,-24.37 1.8,-5.16 1.24,-9.83 -0.56,-14.2 0,0 -4.37,-10.57 -17.88,-26.72 -22.45,-22.12 -57.4,-23.82 -88.19,-7.55 -19.96,10.54 -32.97,32.28 -44.69,50.76 -16.38,25.84 18.04,73.48 50.42,73.02 6.56,-6.35 48.74,-24.79 65.22,54.67 6.81,32.84 22.63,61.96 55.19,75.01 16.45,6.6 37.81,6.22 53.91,-0.82 14.38,-6.28 13.55,-11.7 8.86,-17.47 -40.58,-14.19 -66.6,-90.18 -54.04,-124.6 4.54,-12.43 13.14,-23.42 20.38,-34.33 13.06,-19.67 19.33,-39.7 22.19,-62.88 4.75,-38.56 -3.45,-70.09 -17.69,-105.37 -0.62,-1.52 1.35,-2.6 2.56,-1.96 13.66,7.26 21.95,20.61 26.76,36.52 2.31,-5.49 2.75,-11.98 6.22,-16.64 -13.49,-22.28 -68.55,-107.09 -122.14,-103.46 z m -140.62,91.75 c -22.84,5.37 -31.47,34.3 -36.6,54.09 -2.95,11.36 -2.75,22.96 -0.64,34.43 0.62,3.36 3.02,6.19 5.82,8.92 6.34,-27.46 14.21,-59.11 42.39,-70.68 13.54,-5.55 46.6,-9.21 72.76,-4.21 -9.83,-27.68 -59.76,-28.19 -83.73,-22.55 z m -14.26,119.17 c 5.48,10.4 11.02,20.49 20.03,27.77 4.94,-19.99 21.79,-39.79 32.98,-53.96 16.01,-20.26 40.59,-30.93 65.23,-32.04 -7.08,-32.82 -54.43,-28.11 -80.9,-21.68 -20.74,5.04 -27.45,20.79 -34.16,40.04 -4.62,13.25 -10.09,26.79 -3.18,39.87 z m 300.5,-86.6 c -4.58,0.04 -8.49,-3.68 -11.2,-7.04 -1.5,-1.87 -2.52,-3.69 -3.09,-5.66 -1.37,3 -3.61,5.75 -5.72,8.51 -2.74,3.59 -4.91,8.13 -6.66,12.7 5.55,30.43 1.29,66.39 -2.97,88.55 -6.36,33.04 -37.6,56.57 -39.91,90.12 -1.39,20.29 14.06,44.36 24.42,60.92 9.73,15.58 26.34,22.28 36.64,36.77 0.68,0.97 0.61,2.35 0.07,3.47 0.36,1.27 0.49,2.61 -0.01,3.9 -17.25,44.92 -80.67,44.08 -113.95,16.55 -19.25,-15.93 -31.69,-37.13 -38.43,-61.08 -8.85,-31.47 -2.28,-65.08 -43.81,-62.99 -1.56,0.07 -7.38,2.93 -8.33,2.29 -22.98,1.79 -46.54,-21.8 -60.2,-38.15 -6.18,-7.42 -8.68,-15.33 -8.72,-23.37 -17.44,-4.83 -33.02,-26.39 -36.31,-45.15 -46.74,-11.73 -14.19,-111.03 20.62,-123.9 3.95,-1.46 9.03,-2.6 14.77,-3.4 18.17,-18.98 47.88,-46.1 73.51,-53.17 12.06,-3.33 24.49,-3.78 36.95,-2.56 1.7,-5.22 4.77,-10.27 7.45,-14.56 3.57,-5.72 9.63,-18.17 16.96,-19.31 1.93,-0.31 4.23,0.46 4.67,2.66 0.2,0.97 0.2,1.93 0.11,2.89 l 0.9,-0.07 c 56.49,0 110.49,83.58 124.3,106.61 2.05,0.12 4.09,1.53 4.58,3.53 l 0.2,1.41 1.15,0.41 c 1.89,2.09 3.59,4.04 5.22,6.37 2.16,3.11 4.55,3.61 7.86,4.8 4.21,1.49 3.68,7.92 -1.07,7.95"
         transform="scale(0.1,0.1)" /><path
         inkscape:connector-curvature="0"
         id="path5534"
         style="fill:#ffffff;fill-opacity:1;fill-rule:nonzero;stroke:none"
         d="m 3313.61,3495.3 c 51.31,78.27 95.66,119.15 124.36,141.76 28.7,22.6 141.75,99.12 188.71,42.61 31.3,-39.14 -24.36,-92.19 -55.66,-132.19 -31.31,-39.99 -133.05,-169.58 -167.83,-188.71 -34.79,-19.12 -48.89,-35.83 -48.89,-35.83 0,0 -91.99,94.1 -40.69,172.36"
         transform="scale(0.1,0.1)" /><path
         inkscape:connector-curvature="0"
         id="path5536"
         style="fill:#481834;fill-opacity:1;fill-rule:nonzero;stroke:none"
         d="m 3350.83,3333.96 c 38.26,3.47 126.31,109.19 162.11,158.5 37.52,51.68 56.07,62.4 76.07,87.4 17.86,22.35 54.22,54.1 30.97,97.5 -20.18,37.69 -114.61,3.36 -162.63,-34.3 -40.69,-31.92 -73.53,-73.32 -105.83,-113.3 -12.02,-14.87 -23.89,-30.15 -36.3,-44.96 -2.62,4.99 -5.3,10.03 -8.1,15.11 16.49,20 31.97,40.97 47.96,60.45 54.51,66.41 141.15,149.74 236.57,141.84 21.04,-1.75 52.27,-17.66 50.12,-52.95 -1.18,-12.19 -12.49,-50.46 -43.62,-81.07 -27.34,-30.43 -53.46,-60.05 -77.65,-93.88 -32.82,-45.88 -107.06,-143.83 -166.2,-151.36 -5.7,1.35 1.59,8.22 -3.47,11.02"
         transform="scale(0.1,0.1)" /><path
         inkscape:connector-curvature="0"
         id="path5538"
         style="fill:#ffffff;fill-opacity:1;fill-rule:nonzero;stroke:none"
         d="m 3146.02,3539.43 c 0,0 33.63,-41.77 45.39,-75.75 11.77,-33.98 77.15,-154.51 149.74,-138.03 60.3,24.72 65.09,44.51 51.78,110.79 -13.31,66.29 -41.89,103.55 -41.89,103.55 l -50.63,138.96 c -25.01,-36.19 -76.6,-120.22 -115.78,-134.81 -39.18,-14.6 -38.61,-4.71 -38.61,-4.71"
         transform="scale(0.1,0.1)" /><path
         inkscape:connector-curvature="0"
         id="path5540"
         style="fill:#481834;fill-opacity:1;fill-rule:nonzero;stroke:none"
         d="m 3388.51,3471.23 c -3.93,19.26 -8.41,60.15 -27.11,72.89 -3.49,21.69 -16.38,42.1 -25.71,61.62 -8.08,16.89 -12.34,34.96 -19.28,52.23 -0.55,2.9 -1.42,5.78 -2.16,8.5 -1.19,4.43 -2.42,8.84 -4.46,12.95 -0.72,1.44 -2.57,2.35 -4.26,2.4 l -0.3,0.12 c -2.09,0.37 -4.11,-1.14 -4.82,-2.99 l -1.88,-1.81 c -5,-0.29 -9.49,-4.7 -11.93,-12.31 -20.36,-23.08 -35.93,-50.37 -59.12,-71.11 -18.3,-16.35 -57.05,-55.05 -85.57,-40.79 -3.81,9.25 -0.26,18.11 0.85,27.23 l -1,-0.32 c -3.98,-0.73 -7.65,-0.79 -11.12,-0.17 -5.68,-15.49 -4.13,-31.03 -1.71,-33 0.98,-0.76 98.93,-168.47 110.47,-180.92 32.83,-35.4 82.99,-70.23 129.28,-36.23 2.83,2.06 0.78,6.01 -2.51,5.36 -126.74,-25.15 -152.48,120.23 -211.22,201.38 52.86,-3.32 114.57,86.68 144.13,126.93 2.4,0.36 4.25,-1.73 5.91,-5.34 0.63,-2.74 1.42,-5.43 2.63,-7.98 l 0.49,-0.67 c 0.37,-1.19 0.75,-2.4 1.13,-3.67 2.66,-8.72 4.84,-17.6 7.68,-26.27 10.55,-32.28 26.93,-60.76 34.89,-94.12 0.63,-2.59 3.22,-3.73 5.63,-3.51 8.07,-38.28 -3.91,-76.51 -15.91,-114.28 l 0.71,-0.26 c 13.33,19.49 27.3,51.72 30.29,82.16 1.8,-4.51 3.32,-8.94 4.29,-13.22 6.48,-28.91 10.56,-59.89 4.29,-89.29 -0.28,-1.32 1.45,-1.86 2.12,-0.78 15.47,24.68 10.83,58.01 5.28,85.27"
         transform="scale(0.1,0.1)" /><path
         inkscape:connector-curvature="0"
         id="path5542"
         style="fill:#911923;fill-opacity:1;fill-rule:nonzero;stroke:none"
         d="m 3663.53,3633.54 c -21.8,-4.61 -22.55,-24.88 -25.88,-43.18 -7.42,-40.76 1.93,-48.3 19.14,-50.73 20.76,-2.93 29.19,14.17 39.3,29.08 15.59,22.98 8.05,48.93 5.7,52.67 -5.75,9.14 -33.84,13.1 -38.26,12.16"
         transform="scale(0.1,0.1)" /><path
         inkscape:connector-curvature="0"
         id="path5544"
         style="fill:#911923;fill-opacity:1;fill-rule:nonzero;stroke:none"
         d="m 3714.19,3584.62 c 11.71,-0.32 35.51,2.68 42.63,3.33 -14.92,33.99 -19.14,41.14 -46.71,35.83 1.72,-6.04 5,-29.72 4.08,-39.16"
         transform="scale(0.1,0.1)" /><path
         inkscape:connector-curvature="0"
         id="path5546"
         style="fill:#911923;fill-opacity:1;fill-rule:nonzero;stroke:none"
         d="m 3634.01,3617.47 c 2.46,7.36 4.9,13.85 6.8,18.78 -11.51,34.34 -9.15,31.34 -24.73,16.18 6.69,-11.78 13.88,-22.61 17.93,-34.96"
         transform="scale(0.1,0.1)" /><path
         inkscape:connector-curvature="0"
         id="path5548"
         style="fill:#d9dee4;fill-opacity:1;fill-rule:nonzero;stroke:none"
         d="m 3615.95,3720.25 c -9.65,-7.47 -18.53,-14.93 -26.12,-23.33 -11.13,-14.74 -15.83,-19.97 -20.51,-35.94 -5.94,-20.22 -4.9,-38.7 -5.11,-58.28 21.67,40.22 30.99,41.25 50.59,61.85 2.82,2.95 7.81,8.67 12.24,9.35 10.48,1.61 14.68,-5.13 24.63,-37.52 1.06,0.62 2.2,1.19 3.41,1.69 4.37,12.78 9.02,25.49 13.54,38.15 11.8,32.99 15.66,50 47.58,77.02 -24.07,-3.49 -67.98,-12.35 -100.25,-32.99"
         transform="scale(0.1,0.1)" /><path
         inkscape:connector-curvature="0"
         id="path5550"
         style="fill:#d9dee4;fill-opacity:1;fill-rule:nonzero;stroke:none"
         d="m 3615.67,3525.89 c 4.13,10.38 8.82,24.95 8.82,24.95 -3.51,16.22 0.8,37.95 6.33,56.58 -5.13,6.57 -9.17,13.72 -17.99,29.74 4.77,-35.95 4.56,-73.75 2.84,-111.27"
         transform="scale(0.1,0.1)" /><path
         inkscape:connector-curvature="0"
         id="path5552"
         style="fill:#d9dee4;fill-opacity:1;fill-rule:nonzero;stroke:none"
         d="m 3710.91,3573.27 c -8.11,-14.26 -22.96,-35.14 -37.22,-43.34 6.14,-19.37 5.7,-46.09 4.05,-66.38 28.68,36.79 65.76,64.79 86.26,105.63 -1.18,4.26 -1.74,5.27 -3.27,9.25 l -49.82,-5.16"
         transform="scale(0.1,0.1)" /><path
         inkscape:connector-curvature="0"
         id="path5554"
         style="fill:#d9dee4;fill-opacity:1;fill-rule:nonzero;stroke:none"
         d="m 3869.3,3754.24 -0.31,-0.3 c -0.14,0.16 -4.29,4.54 -11.2,10.11 14.76,-44.76 -35.87,-80.56 -68.83,-100.72 -20.4,-12.48 -41.62,-21.97 -63.12,-30.65 7.21,-0.02 19.7,-2.18 24.69,-7.08 11.14,-10.96 26.31,-52.42 30.36,-74.68 18.06,19.26 43.39,42.07 58.32,57.38 14.62,15 29.68,35.87 44.23,50.93 33.77,34.97 11.36,66.6 -14.14,95.01"
         transform="scale(0.1,0.1)" /><path
         inkscape:connector-curvature="0"
         id="path5556"
         style="fill:#911923;fill-opacity:1;fill-rule:nonzero;stroke:none"
         d="m 3629.4,3370.35 c 6.29,22.81 16.58,45.2 29.26,65.84 1.66,23.17 14.18,41.53 6.67,90.31 -6.57,-1.56 -26.45,-0.23 -35.04,11.06 0,0 -30,-59.04 -23.33,-247.56 6.88,27.09 15.19,54.09 22.44,80.35"
         transform="scale(0.1,0.1)" /><path
         inkscape:connector-curvature="0"
         id="path5558"
         style="fill:#ffffff;fill-opacity:1;fill-rule:nonzero;stroke:none"
         d="m 3537.41,3692.84 c -19.54,-17.85 -19.31,-52.9 -25.37,-77.07 -10.66,-42.53 -16.55,-113.67 -17.29,-156.03 24.05,44.6 53.65,83.95 57.68,136.15 -7.97,20.06 0.78,49.45 5.82,68.13 3.2,11.86 16.54,36.36 26.66,47.46 -14.92,-3.57 -33.71,-9.49 -47.5,-18.64"
         transform="scale(0.1,0.1)" /><path
         inkscape:connector-curvature="0"
         id="path5560"
         style="fill:#ffffff;fill-opacity:1;fill-rule:nonzero;stroke:none"
         d="m 3623.37,2773.79 c 63.65,-37.69 146.8,-14.09 211.34,10.04 19.25,7.2 37.96,15.62 56.79,23.8 11.18,4.86 27.21,2.91 40.93,1.86 -17.96,41.31 -35.06,84.18 -48.13,128.08 -29.79,75.07 -28.94,167.78 -15.3,248.06 0.87,20 1.8,37.51 11.21,58.2 1.1,2.43 69.47,120.98 71.93,121.8 34.13,54.8 66.89,105.74 80.13,136.97 22.07,52.01 13.27,86.08 7.91,99.25 -4.34,4.84 -10.49,8.85 -19.07,13.19 -23.83,12.05 -52.12,21.3 -75.56,35.84 3.17,-30.83 -6.29,-60.57 -19.34,-88.29 -16.72,-35.52 -45.67,-64.57 -67.9,-96.49 -14.3,-20.53 -39.47,-66.5 -35.42,-92.88 1.31,-8.51 5.73,-16.27 8.76,-24.14 43.05,-42.08 24.86,-150.36 -1.02,-184.88 -1.33,-1.77 -3.16,-2.91 -5.13,-3.49 -16.31,-30.87 -50.14,-88.2 -84.43,-82.51 l -0.68,-2.86 c -89.73,-23.21 -55.66,72.89 4.48,18.76 l -0.73,-3.07 c 25.61,-2.76 57.41,52.71 69.5,75.43 -1.24,3.09 -0.91,6.71 1.23,9.56 18.35,24.47 27.93,82.51 20.24,122.63 -0.69,1.31 -1.39,2.74 -2.15,4.33 -4.99,10.34 -12.21,18.94 -20.66,26.6 -12.11,10.99 -24.53,13.8 -37.44,12.01 -29.02,-11.67 -75.55,-75.56 -87.07,-96.95 -1.4,-2.6 -3.83,-4.28 -6.51,-4.9 -24.86,-37.17 -43.66,-77.39 -29.86,-93.62 l 3.49,2.42 c 44.44,-22.26 35.49,-57.46 9.09,-57.46 -16.46,0 -22.94,30.08 -24.92,46.46 l 1.52,1.05 c -19.05,24.34 4.86,71.43 29.18,107.69 -0.81,2.46 -0.66,5.23 0.68,7.7 13.14,24.43 33,48.53 63.05,82.11 11.87,12.6 25.86,21.49 40.01,25.89 0.91,1.32 2.24,2.33 3.87,2.77 10.65,2.77 19.6,8.77 26.03,18.64 14.66,46.5 36.99,87.23 67.85,126.85 23.86,30.66 44.04,60.74 54.64,98.58 7.24,25.82 1.8,44.68 -6.56,63.82 -3.12,3.59 -5.96,7.46 -8.49,11.63 -1.81,-5.72 -4.21,-10.9 -7.12,-15.72 -11.16,-25.89 -34.05,-45.75 -54.3,-65.85 -4.1,-4.06 -8.23,-8.44 -12.39,-12.9 -19.15,-47.43 -11.4,-95.89 -21.05,-145.69 l -0.07,-0.23 c -0.13,-12.17 -11.28,-23.93 -22.36,-28.58 -29.95,-12.58 -44.38,-6.66 -89.97,-21.87 -19.23,-15.87 1.56,-37.92 0.75,-48.27 -1.54,-19.77 -19.16,-35.14 -30.2,-50.53 -26.64,-37.11 -55.33,-82.28 -72.03,-126.17 -0.46,-11.83 -2.37,-13.98 -3.4,-22.37 3.1,-162.93 -22.67,-255.85 24.65,-372.3"
         transform="scale(0.1,0.1)" /><path
         inkscape:connector-curvature="0"
         id="path5562"
         style="fill:#ffffff;fill-opacity:1;fill-rule:nonzero;stroke:none"
         d="m 3473.74,2785.95 c 28.28,0.33 59.26,-12.42 87.56,-9.81 -6.81,14.27 -4.91,31.92 -4.14,47.98 6.65,137.4 23.37,102.34 29.95,255.66 0.09,15.65 1.7,82.15 1.91,85.52 -4.76,22.69 -4.35,47.97 -8.51,70.2 -5.51,29.43 -13.36,58.41 -21.5,87.2 -6.53,23.11 -17.14,44.92 -19.33,69 -1.44,15.84 15.23,28.74 23.8,42.4 -15.08,10.22 -28.89,27.31 -30.19,41.54 -0.53,5.87 0,11.93 1.04,18.03 -0.54,-1 -1.09,-2.01 -1.62,-3.01 -12.94,-24.04 -27.87,-46.54 -38.1,-72.02 0,0 -9.44,-54.84 -4.62,-71.37 21.7,-9.39 37.3,-34.7 37.3,-64.45 0,-33.15 -19.36,-60.85 -44.95,-67.07 -0.03,-1.81 -0.08,-3.6 -0.06,-5.43 0.44,-69.93 -22.58,-129.37 -43.12,-195.36 -23.59,-75.76 -36.89,-161.42 -35.56,-241.09 22.49,8.78 45.69,11.81 70.14,12.08"
         transform="scale(0.1,0.1)" /><path
         inkscape:connector-curvature="0"
         id="path5564"
         style="fill:#e97e6e;fill-opacity:1;fill-rule:nonzero;stroke:none"
         d="m 3679.67,3636.54 c -4.48,-0.47 -8.98,-0.7 -13.5,-0.77 24.26,84.29 31.42,92.41 100.71,141.5 35.44,25.08 79.73,-0.73 83.49,-11.06 19.59,-53.33 -65.17,-92.72 -102.37,-110.57 -17.73,-8.51 -37.77,-14.97 -57.06,-22.52 -3.22,2.45 -7.1,3.86 -11.27,3.42"
         transform="scale(0.1,0.1)" /><path
         inkscape:connector-curvature="0"
         id="path5566"
         style="fill:#ffffff;fill-opacity:1;fill-rule:nonzero;stroke:none"
         d="m 3604.62,3641.22 c -23.01,-22.37 -35.79,-34.51 -56.48,-143.51 -7.98,-42.04 23.47,-51.16 34.14,-65.93 2.42,-3.35 4.74,-6.93 1.33,-6.43 -3.31,0.49 -6.84,1.67 -10.43,3.3 -0.45,-3.9 -2.13,-7.76 -5.31,-11.37 -27.18,-30.64 -4.29,-67.86 5.4,-101.72 6.31,-22.1 11.86,-44.37 16.64,-66.83 -3.49,59.04 14.5,385.93 14.71,392.49"
         transform="scale(0.1,0.1)" /><path
         inkscape:connector-curvature="0"
         id="path5568"
         style="fill:#ffffff;fill-opacity:1;fill-rule:nonzero;stroke:none"
         d="m 3473.74,2785.95 c 28.28,0.33 59.26,-12.42 87.56,-9.81 -6.81,14.27 -4.91,31.92 -4.14,47.98 6.65,137.4 23.37,102.34 29.95,255.66 0.09,15.65 1.7,82.15 1.91,85.52 -4.76,22.69 -4.35,47.97 -8.51,70.2 -5.51,29.43 -13.36,58.41 -21.5,87.2 -6.53,23.11 -17.14,44.92 -19.33,69 -1.44,15.84 15.23,28.74 23.8,42.4 -15.08,10.22 -28.89,27.31 -30.19,41.54 -0.53,5.87 0,11.93 1.04,18.03 -0.54,-1 -1.09,-2.01 -1.62,-3.01 -12.94,-24.04 -27.87,-46.54 -38.1,-72.02 0,0 -9.44,-54.84 -4.62,-71.37 21.7,-9.39 37.3,-34.7 37.3,-64.45 0,-33.15 -19.36,-60.85 -44.95,-67.07 -0.03,-1.81 -0.08,-3.6 -0.06,-5.43 0.44,-69.93 -22.58,-129.37 -43.12,-195.36 -23.59,-75.76 -36.89,-161.42 -35.56,-241.09 22.49,8.78 45.69,11.81 70.14,12.08"
         transform="scale(0.1,0.1)" /><path
         inkscape:connector-curvature="0"
         id="path5570"
         style="fill:#dfdfdd;fill-opacity:1;fill-rule:nonzero;stroke:none"
         d="m 3737.56,3091.76 c -28.31,22.86 -49.61,12.3 -43.55,-7.27 3.14,-10.17 28.84,-6.34 39.43,-4.07 l -0.01,0.01 c 3.58,7.81 2.75,5.54 4.13,11.33"
         transform="scale(0.1,0.1)" /><path
         inkscape:connector-curvature="0"
         id="path5572"
         style="fill:#dfdfdd;fill-opacity:1;fill-rule:nonzero;stroke:none"
         d="m 3646.09,3134.41 c 7.49,-51.71 28.55,-35.79 31.98,-29.21 6.82,13.06 -9.77,28.3 -22.68,35.67 l -9.3,-6.46"
         transform="scale(0.1,0.1)" /><path
         inkscape:connector-curvature="0"
         id="path5574"
         style="fill:#ffffff;fill-opacity:1;fill-rule:nonzero;stroke:none"
         d="m 3682.02,3387.2 c -18.08,-3.99 -23.95,-2.55 -17.26,3.13 5.16,4.38 23.99,9.12 36.93,13.95 43.09,15.19 84.13,10.67 97.26,25.85 4.19,4.85 6.54,24.3 7.13,44.46 0.88,30.31 2.02,66.33 13.67,96.6 -13.19,-14.05 -26.98,-27.73 -41.92,-37.3 -9.41,-6 -8.61,8.85 -10.59,19.54 -8.74,-17.39 -24.45,-32.57 -36.9,-45.92 -36.07,-38.66 -67.25,-80 -85.49,-130.08 -19.68,-54.04 -29.95,-110.37 -37.85,-167.13 12.63,25.44 28.65,50.06 42.8,71.9 14.92,23.05 45.62,49.68 34.99,79.3 -3.42,9.56 -4.78,17.9 -2.77,25.7"
         transform="scale(0.1,0.1)" /><path
         inkscape:connector-curvature="0"
         id="path5576"
         style="fill:#dfdfdd;fill-opacity:1;fill-rule:nonzero;stroke:none"
         d="m 3471.48,3318.54 c 15.72,0 28.46,-15.99 28.46,-35.72 0,-19.73 -12.74,-35.72 -28.46,-35.72 -15.71,0 -28.45,15.99 -28.45,35.72 0,19.73 12.74,35.72 28.45,35.72 z m 0,19.55 c -23.53,0 -42.67,-24.79 -42.67,-55.27 0,-30.47 19.14,-55.26 42.67,-55.26 23.54,0 42.68,24.79 42.68,55.26 0,30.48 -19.14,55.27 -42.68,55.27"
         transform="scale(0.1,0.1)" /><path
         inkscape:connector-curvature="0"
         id="path5578"
         style="fill:#481834;fill-opacity:1;fill-rule:nonzero;stroke:none"
         d="m 3499.94,3282.82 c 0,-19.73 -12.74,-35.72 -28.46,-35.72 -15.71,0 -28.45,15.99 -28.45,35.72 0,19.73 12.74,35.72 28.45,35.72 15.72,0 28.46,-15.99 28.46,-35.72"
         transform="scale(0.1,0.1)" /><path
         inkscape:connector-curvature="0"
         id="path5580"
         style="fill:#481834;fill-opacity:1;fill-rule:nonzero;stroke:none"
         d="m 3645.37,3501.46 c -3.43,13.23 -6.11,-12.98 -6.97,-16.95 -0.59,-2.71 -5.04,-2.81 -5.54,0 -8.24,45.72 33.63,34.27 19.39,-10.39 -2.97,-9.3 -7.73,-18.25 -11.9,-27.03 -5.47,-11.47 -9.48,-23.29 -15.91,-34.23 l -0.65,0.09 c -3.59,21.9 12.8,43.73 20.65,63.32 3.18,7.95 3.03,17.03 0.93,25.19"
         transform="scale(0.1,0.1)" /><path
         inkscape:connector-curvature="0"
         id="path5582"
         style="fill:#481834;fill-opacity:1;fill-rule:nonzero;stroke:none"
         d="m 3403.6,2773.87 c -1.33,79.67 11.97,165.33 35.56,241.09 20.54,65.99 43.56,125.43 43.12,195.36 -0.02,1.83 0.03,3.62 0.06,5.43 25.59,6.22 44.95,33.92 44.95,67.07 0,29.75 -15.6,55.06 -37.3,64.45 -4.82,16.53 4.62,71.37 4.62,71.37 10.23,25.48 25.16,47.98 38.1,72.02 0.53,1 1.08,2.01 1.62,3.01 -1.04,-6.1 -1.57,-12.16 -1.04,-18.03 1.3,-14.23 15.11,-31.32 30.19,-41.54 -8.57,-13.66 -25.24,-26.56 -23.8,-42.4 2.19,-24.08 12.8,-45.89 19.33,-69 8.14,-28.79 15.99,-57.77 21.5,-87.2 4.16,-22.23 3.75,-47.51 8.51,-70.2 -0.21,-3.37 -1.82,-69.87 -1.91,-85.52 -6.58,-153.32 -23.3,-118.26 -29.95,-255.66 -0.77,-16.06 -2.67,-33.71 4.14,-47.98 -28.3,-2.61 -59.28,10.14 -87.56,9.81 -24.45,-0.27 -47.65,-3.3 -70.14,-12.08 z m 186.31,474.86 c -4.78,22.46 -10.33,44.73 -16.64,66.83 -9.69,33.86 -32.58,71.08 -5.4,101.72 3.18,3.61 4.86,7.47 5.31,11.37 3.59,-1.63 7.12,-2.81 10.43,-3.3 3.41,-0.5 1.09,3.08 -1.33,6.43 -10.67,14.77 -42.12,23.89 -34.14,65.93 20.69,109 33.47,121.14 56.48,143.51 -0.21,-6.56 -18.2,-333.45 -14.71,-392.49 z m 65.48,-107.86 c 12.91,-7.37 29.5,-22.61 22.68,-35.67 -3.43,-6.58 -24.49,-22.5 -31.98,29.21 l 9.3,6.46 z m 78.04,-60.44 0.01,-0.01 c -10.59,-2.27 -36.29,-6.1 -39.43,4.07 -6.06,19.57 15.24,30.13 43.55,7.27 -1.38,-5.79 -0.55,-3.52 -4.13,-11.33 z m -134.71,65.66 c 1.03,8.39 2.94,10.54 3.4,22.37 16.7,43.89 45.39,89.06 72.03,126.17 11.04,15.39 28.66,30.76 30.2,50.53 0.81,10.35 -19.98,32.4 -0.75,48.27 45.59,15.21 60.02,9.29 89.97,21.87 11.08,4.65 22.23,16.41 22.36,28.58 l 0.07,0.23 c 9.65,49.8 1.9,98.26 21.05,145.69 4.16,4.46 8.29,8.84 12.39,12.9 20.25,20.1 43.14,39.96 54.3,65.85 2.91,4.82 5.31,10 7.12,15.72 2.53,-4.17 5.37,-8.04 8.49,-11.63 8.36,-19.14 13.8,-38 6.56,-63.82 -10.6,-37.84 -30.78,-67.92 -54.64,-98.58 -30.86,-39.62 -53.19,-80.35 -67.85,-126.85 -6.43,-9.87 -15.38,-15.87 -26.03,-18.64 -1.63,-0.44 -2.96,-1.45 -3.87,-2.77 -14.15,-4.4 -28.14,-13.29 -40.01,-25.89 -30.05,-33.58 -49.91,-57.68 -63.05,-82.11 -1.34,-2.47 -1.49,-5.24 -0.68,-7.7 -24.32,-36.26 -48.23,-83.35 -29.18,-107.69 l -1.52,-1.05 c 1.98,-16.38 8.46,-46.46 24.92,-46.46 26.4,0 35.35,35.2 -9.09,57.46 l -3.49,-2.42 c -13.8,16.23 5,56.45 29.86,93.62 2.68,0.62 5.11,2.3 6.51,4.9 11.52,21.39 58.05,85.28 87.07,96.95 12.91,1.79 25.33,-1.02 37.44,-12.01 8.45,-7.66 15.67,-16.26 20.66,-26.6 0.76,-1.59 1.46,-3.02 2.15,-4.33 7.69,-40.12 -1.89,-98.16 -20.24,-122.63 -2.14,-2.85 -2.47,-6.47 -1.23,-9.56 -12.09,-22.72 -43.89,-78.19 -69.5,-75.43 l 0.73,3.07 c -60.14,54.13 -94.21,-41.97 -4.48,-18.76 l 0.68,2.86 c 34.29,-5.69 68.12,51.64 84.43,82.51 1.97,0.58 3.8,1.72 5.13,3.49 25.88,34.52 44.07,142.8 1.02,184.88 -3.03,7.87 -7.45,15.63 -8.76,24.14 -4.05,26.38 21.12,72.35 35.42,92.88 22.23,31.92 51.18,60.97 67.9,96.49 13.05,27.72 22.51,57.46 19.34,88.29 23.44,-14.54 51.73,-23.79 75.56,-35.84 8.58,-4.34 14.73,-8.35 19.07,-13.19 5.36,-13.17 14.16,-47.24 -7.91,-99.25 -13.24,-31.23 -46,-82.17 -80.13,-136.97 -2.46,-0.82 -70.83,-119.37 -71.93,-121.8 -9.41,-20.69 -10.34,-38.2 -11.21,-58.2 -13.64,-80.28 -14.49,-172.99 15.3,-248.06 13.07,-43.9 30.17,-86.77 48.13,-128.08 -13.72,1.05 -29.75,3 -40.93,-1.86 -18.83,-8.18 -37.54,-16.6 -56.79,-23.8 -64.54,-24.13 -147.69,-47.73 -211.34,-10.04 -47.32,116.45 -21.55,209.37 -24.65,372.3 z M 3748,3655.64 c -16.49,-7.92 -34.95,-14.1 -52.97,-21.01 -5.66,2.03 -20.81,5.44 -27.58,5.58 23.25,80.12 31.38,88.85 99.43,137.06 35.44,25.08 79.73,-0.73 83.49,-11.06 19.59,-53.33 -65.17,-92.72 -102.37,-110.57 z m -131.92,-3.21 c 15.58,15.16 13.22,18.16 24.73,-16.18 -1.9,-4.93 -4.34,-11.42 -6.8,-18.78 -4.05,12.35 -11.24,23.18 -17.93,34.96 z m 68.71,-290.93 c 10.63,-29.62 -20.07,-56.25 -34.99,-79.3 -14.15,-21.84 -30.17,-46.46 -42.8,-71.9 7.9,56.76 18.17,113.09 37.85,167.13 18.24,50.08 49.42,91.42 85.49,130.08 12.45,13.35 28.16,28.53 36.9,45.92 1.98,-10.69 1.18,-25.54 10.59,-19.54 14.94,9.57 28.73,23.25 41.92,37.3 -11.65,-30.27 -12.79,-66.29 -13.67,-96.6 -0.59,-20.16 -2.94,-39.61 -7.13,-44.46 -13.13,-15.18 -54.17,-10.66 -97.26,-25.85 -12.94,-4.83 -31.77,-9.57 -36.93,-13.95 -6.69,-5.68 -0.82,-7.12 17.26,-3.13 -2.01,-7.8 -0.65,-16.14 2.77,-25.7 z m 198.65,297.73 c -14.55,-15.06 -29.61,-35.93 -44.23,-50.93 -14.93,-15.31 -40.26,-38.12 -58.32,-57.38 -4.05,22.26 -19.22,63.72 -30.36,74.68 -4.99,4.9 -17.48,7.06 -24.69,7.08 21.5,8.68 42.72,18.17 63.12,30.65 32.96,20.16 83.59,55.96 68.83,100.72 6.91,-5.57 11.06,-9.95 11.2,-10.11 l 0.31,0.3 c 25.5,-28.41 47.91,-60.04 14.14,-95.01 z M 3606.96,3290 c -6.67,188.52 23.33,247.56 23.33,247.56 8.59,-11.29 28.47,-12.62 35.04,-11.06 7.51,-48.78 -5.01,-67.14 -6.67,-90.31 -12.68,-20.64 -22.97,-43.03 -29.26,-65.84 -7.25,-26.26 -15.56,-53.26 -22.44,-80.35 z m 153.77,288.43 c 1.53,-3.98 2.09,-4.99 3.27,-9.25 -20.5,-40.84 -57.58,-68.84 -86.26,-105.63 1.65,20.29 2.09,47.01 -4.05,66.38 14.26,8.2 29.11,29.08 37.22,43.34 l 49.82,5.16 z m -50.62,45.35 c 27.57,5.31 31.79,-1.84 46.71,-35.83 -7.12,-0.65 -30.92,-3.65 -42.63,-3.33 0.92,9.44 -2.36,33.12 -4.08,39.16 z m -8.32,-2.4 c 2.35,-3.74 9.89,-29.69 -5.7,-52.67 -10.11,-14.91 -18.54,-32.01 -39.3,-29.08 -17.21,2.43 -26.56,9.97 -19.14,50.73 3.33,18.3 4.08,38.57 25.88,43.18 4.42,0.94 32.51,-3.02 38.26,-12.16 z m -88.96,15.78 c 8.82,-16.02 12.86,-23.17 17.99,-29.74 -5.53,-18.63 -9.84,-40.36 -6.33,-56.58 0,0 -4.69,-14.57 -8.82,-24.95 1.72,37.52 1.93,75.32 -2.84,111.27 z m 103.37,116.08 c -31.92,-27.02 -35.78,-44.03 -47.58,-77.02 -4.52,-12.66 -9.17,-25.37 -13.54,-38.15 -1.21,-0.5 -2.35,-1.07 -3.41,-1.69 -9.95,32.39 -14.15,39.13 -24.63,37.52 -4.43,-0.68 -9.42,-6.4 -12.24,-9.35 -19.6,-20.6 -28.92,-21.63 -50.59,-61.85 0.21,19.58 -0.83,38.06 5.11,58.28 4.68,15.97 9.38,21.2 20.51,35.94 7.59,8.4 16.47,15.86 26.12,23.33 32.27,20.64 76.18,29.5 100.25,32.99 z m -131.29,-41.76 c -10.12,-11.1 -23.46,-35.6 -26.66,-47.46 -5.04,-18.68 -13.79,-48.07 -5.82,-68.13 -4.03,-52.2 -33.63,-91.55 -57.68,-136.15 0.74,42.36 6.63,113.5 17.29,156.03 6.06,24.17 5.83,59.22 25.37,77.07 13.79,9.15 32.58,15.07 47.5,18.64 z m -70.75,-428.66 c 0,-30.47 -19.14,-55.26 -42.68,-55.26 -23.53,0 -42.67,24.79 -42.67,55.26 0,30.48 19.14,55.27 42.67,55.27 23.54,0 42.68,-24.79 42.68,-55.27 z m -122.69,-518.13 c 0.15,-4.95 5.03,-7.29 9.25,-5.33 36.72,17.12 79.28,17.42 118.32,9.06 12.83,-2.76 66.02,-12.76 63.27,2.09 0,0 -16.48,11.09 -8.57,109.61 1.9,23.65 6.3,46.78 10.32,70.01 -0.83,-60.07 1.52,-117.43 27.38,-180.57 3.01,-7.35 64.73,-56.14 201.91,-9.39 26.32,8.97 51.85,19.53 76.82,31.74 14.73,7.21 34.32,3.91 52.4,3.99 4.68,0.02 7,4.18 6.18,8.17 l 0.17,0.04 c -0.14,0.52 -14.2,53.34 -46.88,125.24 -40.4,88.9 -32.45,213.05 -9.62,302.3 41.92,101.79 100.46,148.47 145.01,248.43 12.82,28.76 25.53,60.07 25.62,92.11 0.04,13.96 -1.48,31.82 -12.16,42.27 -15.67,15.35 -40.57,20.54 -59.76,30.06 -52.59,26.03 -60.72,43.06 -78.58,64.24 -7.32,34.28 -87.38,123.47 -152.12,77.61 -10.42,-7.38 -19.46,-13.86 -27.46,-19.86 -4.88,0.53 -86.19,-6.89 -131.52,-40.28 -65.39,-10.64 -79.9,-30.87 -86.21,-44.37 -6.72,-13.04 -31.5,-116.41 -30.66,-167.51 l 0.05,-0.08 c -1.78,-19.47 -2.75,-39.13 -2.62,-59.16 0.05,-7.72 -0.07,-15.44 -0.27,-23.16 -10.04,-26.33 -13.33,-52.25 -13.94,-80.96 -29.05,-2.35 -52.12,-31.99 -52.12,-68.17 0,-37.05 24.17,-67.24 54.2,-68.29 0,-1.4 -0.02,-2.81 0.02,-4.21 2.11,-80.84 -35.21,-147.42 -51.31,-224.56 -15.2,-72.78 -29.45,-146.41 -27.12,-221.07"
         transform="scale(0.1,0.1)" /><path
         inkscape:connector-curvature="0"
         id="path5584"
         style="fill:#ffffff;fill-opacity:1;fill-rule:nonzero;stroke:none"
         d="m 4012.06,3256.81 c 0,0 -174.44,-53.24 -197.19,-80.79 -22.76,-27.54 -31.5,-62.55 -10.72,-129.3 29.55,-42.68 45.96,-52.53 70.03,-39.4 24.09,13.13 101.78,75.5 132.42,88.63 30.64,13.13 158.67,58 147.73,101.77 -10.95,43.78 -44.87,218.86 -45.96,274.67 -1.11,55.81 -34.04,162.7 -117.09,149.92 -56.9,-8.76 -56.9,-96.31 -59.1,-117.09 -2.19,-20.79 55.81,-249.5 55.81,-249.5 l 24.07,1.09"
         transform="scale(0.1,0.1)" /><path
         inkscape:connector-curvature="0"
         id="path5586"
         style="fill:#fcd398;fill-opacity:1;fill-rule:nonzero;stroke:none"
         d="m 3786.62,3114.49 c -0.29,-35.41 8.9,-73.62 31.05,-101.5 -16.38,4.72 -47.99,18.63 -64.02,27.97 6.74,23.75 13.93,55.62 32.97,73.53"
         transform="scale(0.1,0.1)" /><path
         inkscape:connector-curvature="0"
         id="path5588"
         style="fill:#ffffff;fill-opacity:1;fill-rule:nonzero;stroke:none"
         d="m 3872.36,2977.71 c -16.89,-4.64 -12.12,-12.18 -56.81,-10.35 -22.37,0.91 -48.64,4.85 -68.59,15.78 l -0.62,-0.81 c 28.47,-30.05 108.53,-37.22 127.33,-18.74 2.91,-41.57 22.38,-44.75 -0.12,-82.9 -13.42,-22.76 -39.4,-32.11 -64.24,-34.25 -16.63,-1.44 -32.61,4.84 -48.65,6.19 -1.46,8.49 -4.56,15.61 -8.45,24.26 -12.48,27.8 -44.33,143.74 -36.3,176.87 8.22,-3.35 20.12,-14.84 35.77,-24.74 20.43,-13.81 65,-36.38 93.4,-35.42 9.28,-2.27 6.91,1.01 22.46,3.55 2.57,-6.33 3.97,-12.83 4.82,-19.44"
         transform="scale(0.1,0.1)" /><path
         inkscape:connector-curvature="0"
         id="path5590"
         style="fill:#481834;fill-opacity:1;fill-rule:nonzero;stroke:none"
         d="m 3872.36,2977.71 c -16.89,-4.64 -12.12,-12.18 -56.81,-10.35 -22.37,0.91 -48.64,4.85 -68.59,15.78 l -0.62,-0.81 c 28.47,-30.05 108.53,-37.22 127.33,-18.74 2.91,-41.57 22.38,-44.75 -0.12,-82.9 -13.42,-22.76 -39.4,-32.11 -64.24,-34.25 -16.63,-1.44 -32.61,4.84 -48.65,6.19 -1.46,8.49 -4.56,15.61 -8.45,24.26 -12.48,27.8 -44.33,143.74 -36.3,176.87 8.22,-3.35 20.12,-14.84 35.77,-24.74 20.43,-13.81 65,-36.38 93.4,-35.42 9.28,-2.27 6.91,1.01 22.46,3.55 2.57,-6.33 3.97,-12.83 4.82,-19.44 z m -85.74,136.78 c -0.29,-35.41 8.9,-73.62 31.05,-101.5 -16.38,4.72 -47.99,18.63 -64.02,27.97 6.74,23.75 13.93,55.62 32.97,73.53 z m 342.51,245.79 c -14.09,124.67 -11.47,235.05 -105.58,263.23 -18.86,5.65 -53.55,7.16 -61.76,-15 -0.68,-1.82 2.02,-2.74 3,-1.26 10.51,15.93 35.4,12.98 51.5,9.85 27.18,-5.28 46.77,-26.76 61.08,-48.78 34.1,-52.46 25.56,-142.11 42.72,-256.46 6.13,-40.74 21,-79.27 25.54,-120.18 -19.03,-47.81 -109.52,-69.89 -148.66,-90.42 -22.69,-11.9 -121.68,-81.37 -128.25,-86.57 -3.83,-2.85 -7.67,-2.47 -15.59,-4.3 -11.97,4.77 -29.25,1.46 -48.75,64.35 -25.26,81.53 26.45,104.51 34.33,109.32 25.59,15.62 135.52,57.02 142.09,59.02 27.93,8.5 52.5,5.91 78.18,-4.33 3.73,-1.47 4.86,-1.46 2.31,1.08 -8.81,8.79 -18.49,14.27 -28.69,17.29 25.56,0.65 40.34,2.56 57.39,4.22 8.35,0.8 -73.68,12.29 -96.03,2.49 -3.78,102.98 -65.83,192.67 -55.16,298.28 l -0.1,0.02 c -41.04,-100.36 34.01,-206.12 39.74,-306.95 -14.38,-3.95 -28.55,-9.77 -41.65,-15.63 -50.67,-22.66 -142.45,-40.36 -149.54,-111.94 -16.97,-7.96 -44.96,-61.16 -47.53,-77.52 -18.8,14.05 -21.33,21.25 -26.25,20.43 -5.93,1.63 -7.25,-2.47 -9.44,-10.67 -5.18,-20.84 -1.43,-65.3 5.74,-92.32 10.27,-38.77 14.58,-81.76 36.38,-116.3 0.96,-3.54 3.43,-8.05 10.65,-11.41 21.96,-11.84 85.38,-18.27 123.4,25.45 14.35,16.51 25.87,42.91 16.22,64.21 -9.26,20.44 -6.25,50.57 -17.83,70.67 21.19,7.98 40.44,27.1 58.05,38.9 35.21,23.58 69.5,46.44 108.42,63.44 176.05,76.88 104.36,78.29 84.07,257.79"
         transform="scale(0.1,0.1)" /><path
         inkscape:connector-curvature="0"
         id="path5592"
         style="fill:#8c573d;fill-opacity:1;fill-rule:nonzero;stroke:none"
         d="m 4058.18,4304.64 -1.02,-0.06 -0.11,1.5 c -4.32,-0.58 -8.58,-0.88 -12.5,-1 0.74,-0.95 1.32,-2.01 1.51,-3.33 0.25,-1.67 -0.46,-3.77 -1.93,-4.72 -29.29,-18.71 -65.52,-17.02 -114.34,-12.29 10.68,-8.15 15.94,-12.46 20.44,-17.62 3.63,-1.97 8.92,-2.33 9.27,-6.02 1.39,-14.37 -34.57,-30.78 -46.25,-35.03 l -0.08,-0.48 0.02,-0.05 c 0.73,-20.57 -2.11,-42.71 5.13,-62.36 4.14,-11.26 10.2,-21.77 14.42,-33.02 7.66,-20.42 7.89,-42.17 -4.15,-106.02 -2.67,-14.16 -11.02,-30.71 17.89,-19.8 3.21,1.21 6.43,5.61 8.23,8.36 6.83,23.68 6.55,58.39 17.8,83.2 -24.25,31.38 -37.62,79.12 -16.62,113.89 l 0.56,-0.32 c -18.86,-36.19 4.86,-72.43 20.87,-104.77 5.52,8.41 13.03,15 23.63,18.59 -7.44,12.83 -11.42,30.25 -16.45,43.16 -6.95,17.91 -10.69,35.73 -8.91,54.93 0.09,0.98 1.65,0.99 1.73,0 1.59,-20.33 8.47,-39.15 16.4,-57.74 4.65,-10.89 12.76,-23.2 15.46,-35.52 5.56,3.86 11.45,6.83 17.53,8.74 17.14,40 15.49,80.23 4.54,122.17 -0.29,1.11 1.43,1.49 1.87,0.51 13.22,-29.25 24.67,-88.98 4.36,-120.18 3.58,1.03 7.17,1.68 10.77,1.96 14.38,48.31 19.95,89.16 7.43,139.73 -0.42,1.69 2.39,2.45 2.94,0.82 13.35,-39.76 18.35,-86.99 4.28,-127.65 4.21,6.66 39.48,91.48 -4.72,150.42"
         transform="scale(0.1,0.1)" /><path
         inkscape:connector-curvature="0"
         id="path5594"
         style="fill:#8c573d;fill-opacity:1;fill-rule:nonzero;stroke:none"
         d="m 3408.42,4297.49 c -19.89,-26.12 -22.62,-59.22 -24.3,-90.91 -1.11,-20.79 3.22,-40.78 15.15,-57.01 -19.54,48.36 3.6,114.85 28.77,154.33 0.57,0.89 2.06,0.01 1.59,-0.92 -13.23,-25.6 -21.15,-53.41 -25.05,-81.92 -3.14,-22.94 1.3,-42.31 6.65,-62.27 8.77,97.92 23.8,121.55 36.31,140.19 l 1.04,-0.62 c -7.97,-15 -12.61,-30.86 -16.15,-47.33 0.64,1.36 1.28,2.7 1.93,4.05 3.03,9.59 16.46,28.79 25.14,55.53 -7.26,23.53 -8.82,48.8 -3.58,73.04 0.3,1.36 2.19,1.1 2.14,-0.28 -0.71,-22.78 2.32,-44.08 9.05,-63.73 0.66,-0.59 1.08,-1.47 0.94,-2.71 l -0.01,-0.01 c 9.98,-27.48 27.43,-51.63 52.71,-71.72 13.62,-10.84 29.48,-18.47 46.03,-23.74 -12.81,7.11 -24.58,15.79 -34.31,24.57 -32.36,29.24 -51.12,67.64 -53.2,111.15 -0.05,0.99 1.33,1.2 1.52,0.22 14.19,-71.39 65.89,-133.25 138.28,-139.2 -46.16,17.03 -88.69,54.34 -105.93,99.68 -0.74,1.99 2.14,3.19 3.03,1.27 12.74,-27.59 34.88,-47.08 58.5,-65.3 13.89,-10.72 28.45,-19.77 44.79,-26.07 -13.03,11.65 -24.75,25.43 -29.81,30.69 -35.33,36.78 -64.76,87.65 -68.27,139.62 l 0.82,0.33 c 4.59,-6.91 8.13,-14.37 11.25,-22.06 24.96,-49.84 66.03,-88.89 112.77,-119.43 -5.54,4.88 -11.07,9.84 -16.59,14.91 -27.54,25.33 -56.1,61.35 -62,99.22 l 0.56,0.23 c 2.7,-4.27 5.35,-8.49 7.96,-12.67 21.43,-21.26 39.51,-45.31 62.26,-65.61 29.01,-25.91 62.93,-48.52 98.98,-63.12 26.48,-10.71 53.92,-12.29 81.32,-8.93 -33.94,5.63 -67.49,18.04 -91.93,29.68 -76.92,36.7 -128.02,97.51 -171.11,168.58 -0.89,1.48 0.93,2.9 2.12,1.63 21.01,-22.58 33.72,-51.14 54.78,-74.01 30.17,-32.81 69.34,-60.12 108.06,-81.75 32.88,-18.38 68.21,-28.2 105.59,-31.23 17.41,-1.4 63.9,4.69 68.66,6.33 -6.49,1 -7.17,0.36 -29.28,4.1 -66.23,11.21 -148.27,62.17 -188.98,93.72 -1.13,0.87 -0.02,2.9 1.28,2.19 49.31,-26.8 96.64,-54.51 150.49,-71.45 19.29,-6.08 39.18,-9.75 59.19,-12.4 33.07,-4.39 38.78,-4.76 55.09,1.96 -7.07,9.44 -17.86,16.11 -28.11,21.4 -31.81,16.45 -34.55,8.01 -100.42,28.51 -2.23,0.69 -0.79,3.91 1.4,3.31 40.84,-11.24 82.46,-14.14 124.56,-15.77 18.66,-0.73 37.14,-1.88 55.84,-1.04 6.31,0.42 12.55,1.28 18.73,2.59 19.96,3.49 20.6,2.31 11.41,7.3 0,0 -41.48,2.02 -143.44,60.72 -0.83,0.47 -0.35,1.78 0.6,1.4 58.42,-23.45 137.79,-70.88 198.86,-35.18 -5.41,8.43 -25.75,19.89 -35.1,25.13 -26.58,14.98 -49.11,37.25 -72.02,59.95 -30.92,30.62 -60.12,59.57 -101.21,72.1 -30.46,9.13 -60.77,6.68 -108.77,6.22 29,-9.11 64.11,-21.66 90.42,-32.02 54.28,-21.39 91.51,-46.84 135.49,-84.98 0.86,-0.75 -0.13,-1.99 -1.06,-1.38 -41.58,27.34 -77.95,55.09 -125.01,72.83 -38.78,14.6 -84.07,37.37 -127.34,44.71 14.67,-6.56 28.65,-15.3 42.42,-22.67 26.41,-14.13 78.75,-29.92 96.28,-47.68 1.81,-1.83 -20.96,8.3 -23.08,9.11 -41.5,15.95 -77.17,29.21 -115.19,48.27 -36.26,18.18 -74.88,16.72 -113.68,6.09 24.39,-1.37 51.45,-5.13 72.06,-8.86 46.03,-8.34 87.95,-33.44 122.92,-64.29 1.14,-1 -0.27,-2.85 -1.45,-1.87 -59.06,49.28 -143.44,67.76 -219.48,64.63 19.98,-3.08 39.26,-8.68 58.35,-15.29 31.59,-10.93 62.91,-18.19 95.23,-26.4 1.34,-0.33 1.11,-2.17 -0.28,-2.13 -34.27,0.93 -65.56,10.89 -97.36,22.82 -34.73,13.04 -92.08,26.4 -112.57,-3.47 18.62,-6.98 33.49,-19.99 46.56,-29.39 51.08,-36.69 111.67,-58.16 163.37,-94.03 0.87,-0.61 0.02,-1.99 -0.93,-1.58 -46.25,19.88 -91.59,43.57 -134.98,69.12 -88.84,52.32 -87.19,91.71 -186.25,-15.08 -33.34,-35.96 -55.7,-82.06 -64.44,-130.39 1.7,3.69 3.58,7.29 5.54,10.86 5.29,18.51 11.65,36.71 20.12,54.02 13.62,27.79 36.54,48.32 56.53,71.31 l 0.65,-0.5 c -17.76,-23.99 -38.18,-46.19 -50.85,-73.48 -3.97,-8.55 -7.05,-17.42 -9.78,-26.41 6.65,8.17 13.89,15.36 21.49,21.07 1.02,0.77 2.4,-0.58 1.58,-1.58 -2.21,-2.73 -4.29,-5.47 -6.31,-8.23 l 2.22,1.64 c 1.48,0.96 3.37,-0.74 2.23,-2.23"
         transform="scale(0.1,0.1)" /><path
         inkscape:connector-curvature="0"
         id="path5596"
         style="fill:#fcd398;fill-opacity:1;fill-rule:nonzero;stroke:none"
         d="m 3448.81,4028.08 c -2.68,-20.26 -13.8,-38.68 -14.17,-56.8 0.3,-28.85 18.52,-61.42 36.14,-92.92 9.38,-16.78 18.25,-32.63 24.17,-47.64 8.39,-24.28 24.46,-54.48 44.24,-76.21 26.04,-19.34 61.2,-23.88 96.96,-24.87 69.29,-1.62 202.77,12.42 263.48,75.12 21.47,23.17 33.17,52.97 39.4,83.4 l 11.17,97.05 0,0.01 c -0.27,4.73 5.65,6.31 7.85,2.16 26.36,-50.3 83.34,-19.21 113.21,23.05 11.42,16.18 18.46,31.88 20.21,47.82 0.02,3.12 0.23,6.26 0.43,9.4 -0.33,14.08 -4.85,28.44 -14.34,43.54 -20.55,32.66 -47.13,18.46 -79.14,0.11 -17.73,-12.73 -20.74,-33.99 -23.93,-55.7 -6.14,-42.44 -11.88,-48.3 -17.15,-54.77 -15.67,-10.08 -31.45,-9.61 -41.87,-4.5 -2.09,1.02 -4.12,3.52 -3.46,6.05 6.86,26.58 16.05,70.73 14.37,98.15 -0.97,15.84 -6.56,31.04 -12.52,45.56 -3.19,7.79 -5.33,15.52 -6.72,23.28 -4.52,19.89 -3.32,39.62 -1.03,54.27 -16.33,-5.3 -33.38,-8.95 -47.46,-12.21 -36.75,-8.5 -77.96,-3.68 -114.26,5.4 -33.61,8.41 -71.52,30.74 -104.03,58.71 55.58,-52.77 80.92,-64.25 80.92,-64.25 4.16,-2.28 2.38,-4.62 -2.7,-3.71 -47.07,8.47 -88.15,45.27 -123.14,75.56 -13.68,11.84 -28.5,25.67 -40.83,41.16 9.12,-16.94 20.67,-32.12 34.09,-46.34 20.47,-21.7 42.89,-48.21 72.3,-56.71 3.92,-1.14 3.45,-6.23 1.08,-8.45 -13.05,-12.16 -84.72,-29.94 -155.73,27.6 -19.02,15.4 -33.44,35.65 -42.52,58.04 -0.46,-1.42 -7.13,-16.37 -17.86,-50.22 -55.3,-174.76 12.41,-147.39 2.84,-220.14"
         transform="scale(0.1,0.1)" /><path
         inkscape:connector-curvature="0"
         id="path5598"
         style="fill:#481834;fill-opacity:1;fill-rule:nonzero;stroke:none"
         d="m 3574.62,4060.07 c 0.45,2.04 3.94,2.41 3.97,0.02 0.3,-22.7 1.83,-45.3 0.02,-67.97 -1.86,-23.12 -11.91,-49.37 -21.56,-70.98 12.21,-12.01 39.58,-11.67 53.55,-10.28 17.35,1.7 34.75,9.59 51.53,14.25 7.39,2.05 6.23,-3.49 0,-7.9 -32.87,-23.27 -137.64,-30.99 -116.33,14.2 30.11,63.85 21.5,95.66 28.82,128.66"
         transform="scale(0.1,0.1)" /><path
         inkscape:connector-curvature="0"
         id="path5600"
         style="fill:#481834;fill-opacity:1;fill-rule:nonzero;stroke:none"
         d="m 3642.44,3956.3 c -2.32,0.41 -2.41,3.81 -0.01,4.17 9.67,1.44 17.88,0.49 26.45,-5.09 7.46,-4.83 15.32,-13.14 12.55,-22.61 -0.45,-1.52 -2.58,-1.84 -3.71,-0.97 -5.82,4.55 -8.8,11.33 -14.75,15.96 -5.29,4.11 -13.96,7.38 -20.53,8.54"
         transform="scale(0.1,0.1)" /><path
         inkscape:connector-curvature="0"
         id="path5602"
         style="fill:#481834;fill-opacity:1;fill-rule:nonzero;stroke:none"
         d="m 3619.97,3964.29 c -2.5,30.05 10.49,81.25 15.53,92.18 l 0.51,-0.08 c -2.33,-29.72 -2.76,-64.33 -13.2,-92.47 -0.5,-1.36 -2.72,-1.09 -2.84,0.37"
         transform="scale(0.1,0.1)" /><path
         inkscape:connector-curvature="0"
         id="path5604"
         style="fill:#481834;fill-opacity:1;fill-rule:nonzero;stroke:none"
         d="m 3977.34,4066.36 c 10.18,20 31.11,39.6 55.03,39.23 20.28,-0.3 37.71,-10.51 40.19,-31.72 3.38,-28.94 -31.64,-101.41 -69.82,-82.17 -2.82,1.43 -2.46,5.64 0.81,6.18 31.25,5.21 47.67,27.44 57.5,56.71 7.1,21.13 -1.78,39.17 -24.87,42.62 -23.92,3.56 -36.53,-15.63 -50.53,-30.75 1.03,-12.03 7.53,-20.88 10.38,-32.8 2.61,-10.97 -11.53,-27.47 -22.53,-22.1 -1.42,0.69 -1.86,2.04 -1.42,3.49 2.19,7.27 12.05,6.71 13.92,14.03 1.24,4.76 -2.87,10.9 -4.78,15.03 -4.11,8.94 -4.56,20.93 -3.88,22.25"
         transform="scale(0.1,0.1)" /><path
         inkscape:connector-curvature="0"
         id="path5606"
         style="fill:#481834;fill-opacity:1;fill-rule:nonzero;stroke:none"
         d="m 3406.19,4299.72 -2.22,-1.64 c 2.02,2.76 4.1,5.5 6.31,8.23 0.82,1 -0.56,2.35 -1.58,1.58 -7.6,-5.71 -14.84,-12.9 -21.49,-21.07 2.73,8.99 5.81,17.86 9.78,26.41 12.67,27.29 33.09,49.49 50.85,73.48 l -0.65,0.5 c -19.99,-22.99 -42.91,-43.52 -56.53,-71.31 -8.47,-17.31 -14.83,-35.51 -20.12,-54.02 -1.96,-3.57 -3.84,-7.17 -5.54,-10.86 8.74,48.33 31.1,94.43 64.44,130.39 99.06,106.79 97.41,67.4 186.25,15.08 43.39,-25.55 88.73,-49.24 134.98,-69.12 0.95,-0.41 1.8,0.97 0.93,1.58 -51.7,35.87 -112.29,57.34 -163.37,94.03 -13.07,9.4 -27.94,22.41 -46.56,29.39 20.49,29.87 77.84,16.51 112.57,3.47 31.8,-11.93 63.09,-21.89 97.36,-22.82 1.39,-0.04 1.62,1.8 0.28,2.13 -32.32,8.21 -63.64,15.47 -95.23,26.4 -19.09,6.61 -38.37,12.21 -58.35,15.29 76.04,3.13 160.42,-15.35 219.48,-64.63 1.18,-0.98 2.59,0.87 1.45,1.87 -34.97,30.85 -76.89,55.95 -122.92,64.29 -20.61,3.73 -47.67,7.49 -72.06,8.86 38.8,10.63 77.42,12.09 113.68,-6.09 38.02,-19.06 73.69,-32.32 115.19,-48.27 2.12,-0.81 24.89,-10.94 23.08,-9.11 -17.53,17.76 -69.87,33.55 -96.28,47.68 -13.77,7.37 -27.75,16.11 -42.42,22.67 43.27,-7.34 88.56,-30.11 127.34,-44.71 47.06,-17.74 83.43,-45.49 125.01,-72.83 0.93,-0.61 1.92,0.63 1.06,1.38 -43.98,38.14 -81.21,63.59 -135.49,84.98 -26.31,10.36 -61.42,22.91 -90.42,32.02 48,0.46 78.31,2.91 108.77,-6.22 41.09,-12.53 70.29,-41.48 101.21,-72.1 22.91,-22.7 45.44,-44.97 72.02,-59.95 9.35,-5.24 29.69,-16.7 35.1,-25.13 -61.07,-35.7 -140.44,11.73 -198.86,35.18 -0.95,0.38 -1.43,-0.93 -0.6,-1.4 101.96,-58.7 143.44,-60.72 143.44,-60.72 9.19,-4.99 8.55,-3.81 -11.41,-7.3 -6.18,-1.31 -12.42,-2.17 -18.73,-2.59 -18.7,-0.84 -37.18,0.31 -55.84,1.04 -42.1,1.63 -83.72,4.53 -124.56,15.77 -2.19,0.6 -3.63,-2.62 -1.4,-3.31 65.87,-20.5 68.61,-12.06 100.42,-28.51 10.25,-5.29 21.04,-11.96 28.11,-21.4 -16.31,-6.72 -22.02,-6.35 -55.09,-1.96 -20.01,2.65 -39.9,6.32 -59.19,12.4 -53.85,16.94 -101.18,44.65 -150.49,71.45 -1.3,0.71 -2.41,-1.32 -1.28,-2.19 40.71,-31.55 122.75,-82.51 188.98,-93.72 22.11,-3.74 22.79,-3.1 29.28,-4.1 -4.76,-1.64 -51.25,-7.73 -68.66,-6.33 -37.38,3.03 -72.71,12.85 -105.59,31.23 -38.72,21.63 -77.89,48.94 -108.06,81.75 -21.06,22.87 -33.77,51.43 -54.78,74.01 -1.19,1.27 -3.01,-0.15 -2.12,-1.63 43.09,-71.07 94.19,-131.88 171.11,-168.58 24.44,-11.64 57.99,-24.05 91.93,-29.68 -27.4,-3.36 -54.84,-1.78 -81.32,8.93 -36.05,14.6 -69.97,37.21 -98.98,63.12 -22.75,20.3 -40.83,44.35 -62.26,65.61 -2.61,4.18 -5.26,8.4 -7.96,12.67 l -0.56,-0.23 c 5.9,-37.87 34.46,-73.89 62,-99.22 5.52,-5.07 11.05,-10.03 16.59,-14.91 -46.74,30.54 -87.81,69.59 -112.77,119.43 -3.12,7.69 -6.66,15.15 -11.25,22.06 l -0.82,-0.33 c 3.51,-51.97 32.94,-102.84 68.27,-139.62 5.06,-5.26 16.78,-19.04 29.81,-30.69 -16.34,6.3 -30.9,15.35 -44.79,26.07 -23.62,18.22 -45.76,37.71 -58.5,65.3 -0.89,1.92 -3.77,0.72 -3.03,-1.27 17.24,-45.34 59.77,-82.65 105.93,-99.68 -72.39,5.95 -124.09,67.81 -138.28,139.2 -0.19,0.98 -1.57,0.77 -1.52,-0.22 2.08,-43.51 20.84,-81.91 53.2,-111.15 9.73,-8.78 21.5,-17.46 34.31,-24.57 -16.55,5.27 -32.41,12.9 -46.03,23.74 -25.28,20.09 -42.73,44.24 -52.71,71.72 l 0.01,0.01 c 0.14,1.24 -0.28,2.12 -0.94,2.71 -6.73,19.65 -9.76,40.95 -9.05,63.73 0.05,1.38 -1.84,1.64 -2.14,0.28 -5.24,-24.24 -3.68,-49.51 3.58,-73.04 -8.68,-26.74 -22.11,-45.94 -25.14,-55.53 -0.65,-1.35 -1.29,-2.69 -1.93,-4.05 3.54,16.47 8.18,32.33 16.15,47.33 l -1.04,0.62 c -12.51,-18.64 -27.54,-42.27 -36.31,-140.19 -5.35,19.96 -9.79,39.33 -6.65,62.27 3.9,28.51 11.82,56.32 25.05,81.92 0.47,0.93 -1.02,1.81 -1.59,0.92 -25.17,-39.48 -48.31,-105.97 -28.77,-154.33 -11.93,16.23 -16.26,36.22 -15.15,57.01 1.68,31.69 4.41,64.79 24.3,90.91 1.14,1.49 -0.75,3.19 -2.23,2.23 z m 39.78,-51.5 c 10.73,33.85 17.4,48.8 17.86,50.22 9.08,-22.39 23.5,-42.64 42.52,-58.04 71.01,-57.54 142.68,-39.76 155.73,-27.6 2.37,2.22 2.84,7.31 -1.08,8.45 -29.41,8.5 -51.83,35.01 -72.3,56.71 -13.42,14.22 -24.97,29.4 -34.09,46.34 12.33,-15.49 27.15,-29.32 40.83,-41.16 34.99,-30.29 76.07,-67.09 123.14,-75.56 5.08,-0.91 6.86,1.43 2.7,3.71 0,0 -25.34,11.48 -80.92,64.25 32.51,-27.97 70.42,-50.3 104.03,-58.71 36.3,-9.08 77.51,-13.9 114.26,-5.4 14.08,3.26 31.13,6.91 47.46,12.21 -2.29,-14.65 -3.49,-34.38 1.03,-54.27 1.39,-7.76 3.53,-15.49 6.72,-23.28 5.96,-14.52 11.55,-29.72 12.52,-45.56 1.68,-27.42 -7.51,-71.57 -14.37,-98.15 -0.66,-2.53 1.37,-5.03 3.46,-6.05 10.42,-5.11 26.2,-5.58 41.87,4.5 5.27,6.47 11.01,12.33 17.15,54.77 3.19,21.71 6.2,42.97 23.93,55.7 32.01,18.35 58.59,32.55 79.14,-0.11 9.49,-15.1 14.01,-29.46 14.34,-43.54 -0.2,-3.14 -0.41,-6.28 -0.43,-9.4 -1.75,-15.94 -8.79,-31.65 -20.21,-47.82 -29.87,-42.26 -86.85,-73.35 -113.21,-23.05 -2.2,4.15 -8.12,2.57 -7.86,-2.16 l 0,-0.01 -11.16,-97.05 c -6.23,-30.43 -17.93,-60.23 -39.4,-83.4 -60.71,-62.71 -194.19,-76.73 -263.48,-75.12 -35.76,0.99 -70.92,5.53 -96.96,24.87 -19.78,21.73 -35.85,51.93 -44.24,76.21 -5.92,15.01 -14.79,30.86 -24.17,47.64 -17.62,31.5 -35.84,64.07 -36.14,92.92 0.37,18.12 11.49,36.54 14.17,56.8 9.58,72.75 -58.14,45.38 -2.84,220.14 z m 616.93,-94 c 14.07,40.66 9.07,87.89 -4.28,127.65 -0.55,1.63 -3.36,0.87 -2.94,-0.82 12.52,-50.57 6.95,-91.42 -7.43,-139.73 -3.6,-0.28 -7.19,-0.93 -10.77,-1.96 20.31,31.2 8.86,90.93 -4.36,120.18 -0.44,0.98 -2.16,0.6 -1.87,-0.51 10.95,-41.94 12.6,-82.17 -4.54,-122.17 -6.08,-1.91 -11.97,-4.88 -17.53,-8.74 -2.7,12.32 -10.81,24.63 -15.46,35.52 -7.93,18.59 -14.81,37.41 -16.4,57.74 -0.08,0.99 -1.64,0.98 -1.73,0 -1.78,-19.2 1.96,-37.02 8.91,-54.93 5.03,-12.91 9.01,-30.33 16.45,-43.16 -10.6,-3.59 -18.11,-10.18 -23.63,-18.59 -16.01,32.34 -39.73,68.58 -20.87,104.77 l -0.56,0.32 c -21,-34.77 -7.63,-82.51 16.62,-113.89 -11.25,-24.81 -10.97,-59.52 -17.8,-83.2 -1.8,-2.75 -5.02,-7.15 -8.23,-8.36 -28.91,-10.91 -20.56,5.64 -17.89,19.8 12.04,63.85 11.81,85.6 4.15,106.02 -4.22,11.25 -10.28,21.76 -14.42,33.02 -7.24,19.65 -4.4,41.79 -5.13,62.36 l -0.02,0.05 0.08,0.48 c 11.68,4.25 47.64,20.66 46.25,35.03 -0.35,3.69 -5.64,4.05 -9.27,6.02 -4.5,5.16 -9.76,9.47 -20.44,17.62 48.82,-4.73 85.05,-6.42 114.34,12.29 1.47,0.95 2.18,3.05 1.93,4.72 -0.19,1.32 -0.77,2.38 -1.51,3.33 3.92,0.12 8.18,0.42 12.5,1 l 0.11,-1.5 1.02,0.06 c 44.2,-58.94 8.93,-143.76 4.72,-150.42 z m -709.57,28.82 24.07,67.18 c -3,-14.35 -3.93,-29.27 -4.32,-42.19 -0.63,-21 2.81,-39.47 11.76,-58.5 5.69,-12.08 18.2,-19.34 27.07,-29.11 5.9,-40.44 28.65,-54.36 23.87,-90.62 -2.45,-18.66 -13.84,-37.33 -14.28,-58.45 0.36,-32.42 19.4,-66.47 37.82,-99.4 9.16,-16.39 17.81,-31.86 23.32,-45.8 2.62,-7.6 6.1,-16.1 10.33,-24.94 l -0.62,-0.19 c 8.07,-25.73 21.36,-43.6 37.74,-56.11 15.07,-16.27 54.09,-23.68 69.89,-25.77 11.87,-1.57 23.94,-2.28 35.83,-2.63 71.45,-1.67 209.39,13.16 273.35,79.22 32.52,35.12 44.79,84.01 48.33,131.55 2.5,19.82 2.12,25.23 2.77,33.81 12.96,-12.89 36.19,-14.95 55.35,-9.65 77.69,21.55 118.34,124.37 68.54,175.8 -3.94,4.08 -8.11,7.12 -12.39,9.39 20.26,55.31 36.46,117.09 1.42,169.8 13.52,2.66 29.96,13.49 30.42,21.16 0.27,10.45 -43.7,36.14 -58.1,45.12 -22.33,14.66 -42.13,34.28 -61.27,53.25 -30.69,30.4 -62.43,61.84 -106.67,75.35 -41.96,12.57 -153.22,6.42 -172.81,2.64 l 0.05,-0.28 c -43.24,6.54 -87.69,0.39 -124.42,-24.84 -19.53,0.96 -39.64,-2.72 -47.1,-22.85 -37.91,13.54 -71.63,-23.09 -104.55,-56.61 -26.4,-26.9 -44.73,-56.01 -58.26,-91.65 -27.73,-73.04 -19,-131.06 -17.14,-124.68"
         transform="scale(0.1,0.1)" /><path
         inkscape:connector-curvature="0"
         id="path5608"
         style="fill:#481834;fill-opacity:1;fill-rule:nonzero;stroke:none"
         d="m 3576.25,4450.91 c -1.72,1.63 -0.22,4.64 2.16,3.68 35.58,-14.29 70.22,-37.19 103.36,-56.7 44.51,-26.22 91.68,-37.31 138.33,-58.11 0.97,-0.42 0.35,-1.87 -0.64,-1.51 -44.26,16.45 -89.54,24.36 -130.93,48.19 -36.5,21 -81.44,35.16 -112.28,64.45"
         transform="scale(0.1,0.1)" /><path
         inkscape:connector-curvature="0"
         id="path5610"
         style="fill:#481834;fill-opacity:1;fill-rule:nonzero;stroke:none"
         d="m 3688.99,4432.61 c 54.15,-31.48 115.16,-47.4 168.61,-79.75 1.3,-0.77 -0.01,-3.01 -1.33,-2.28 -53.97,29.79 -120.84,39.46 -168.62,79.75 -1.1,0.92 -0.03,3.08 1.34,2.28"
         transform="scale(0.1,0.1)" /><path
         inkscape:connector-curvature="0"
         id="path5612"
         style="fill:#481834;fill-opacity:1;fill-rule:nonzero;stroke:none"
         d="m 3587.33,3834.63 c 40.82,3.27 75.93,4.32 113.61,23.02 24.36,12.11 47.1,23.87 66.32,43.13 -11.72,2.85 -23.74,2.05 -35.55,4.17 l -0.06,0.47 c 20.43,12.25 68.53,-0.59 79.51,-22.22 0.93,-1.85 -0.91,-3.43 -2.67,-2.66 -11.25,4.82 -20.25,12.07 -31.41,16.9 -19.86,-24.25 -39.1,-37.58 -63.77,-47.53 -37.9,-15.29 -85.68,-29.32 -126.12,-16.38 l 0.14,1.1"
         transform="scale(0.1,0.1)" /><path
         inkscape:connector-curvature="0"
         id="path5614"
         style="fill:#481834;fill-opacity:1;fill-rule:nonzero;stroke:none"
         d="m 3698.54,3811.67 c 10.84,2.16 28.17,5.39 37.91,-1.02 l 0,-0.76 c -9.76,-6.36 -49.93,-0.14 -54.76,-14.41 6.33,-4.53 28.68,-10.83 31.74,-0.25 0.41,1.38 2.38,0.93 2.88,-0.37 7,-17.99 -33.47,-8.15 -39.74,-5.82 -2.06,0.77 -2.86,2.39 -2.56,4.5 1.78,12.17 13.97,16.06 24.53,18.13"
         transform="scale(0.1,0.1)" /><path
         inkscape:connector-curvature="0"
         id="path5616"
         style="fill:#ffffff;fill-opacity:1;fill-rule:nonzero;stroke:none"
         d="m 3552.7,4062.96 c 7.86,-8.96 9.78,-32.07 5.36,-46.13 -4.42,-14.05 -13.46,-34.33 -34.74,-37.97 -21.29,-3.64 -49.07,9.29 -52.84,24 -3.75,14.7 6.86,75.19 30.02,76.63 23.18,1.44 39,-1.48 52.2,-16.53"
         transform="scale(0.1,0.1)" /><g
         id="g5618"
         transform="scale(0.1,0.1)"><g
           clip-path="url(#clipPath5622)"
           id="g5620"><path
             inkscape:connector-curvature="0"
             id="path5626"
             style="fill:#9b5624;fill-opacity:1;fill-rule:nonzero;stroke:none"
             d="m 3499.62,4033.13 c -1.57,-19.49 8,-36.17 21.36,-37.24 13.35,-1.08 25.46,13.88 27.02,33.37 1.56,19.5 -8,36.17 -21.36,37.25 -13.36,1.06 -25.46,-13.87 -27.02,-33.38" /><path
             inkscape:connector-curvature="0"
             id="path5628"
             style="fill:#9b5624;fill-opacity:1;fill-rule:nonzero;stroke:none"
             d="m 3547.92,4028.41 c 0.03,0.28 0.05,0.57 0.08,0.85 0.11,1.41 0.16,2.8 0.16,4.18 0,-1.38 -0.05,-2.77 -0.16,-4.18 -0.03,-0.29 -0.05,-0.57 -0.08,-0.85 m -21.28,38.1 c -0.45,0.04 -0.9,0.05 -1.34,0.05 0.44,0 0.89,-0.01 1.34,-0.05 m -1.46,0.05 c 0.04,0 0.08,0 0.11,0 l 0,0 c -0.03,0 -0.07,0 -0.11,0" /><path
             inkscape:connector-curvature="0"
             id="path5630"
             style="fill:#5e2214;fill-opacity:1;fill-rule:nonzero;stroke:none"
             d="m 3547.13,4023.25 c -6.39,7.87 -14.87,12.98 -24.49,13.75 -0.85,0.07 -1.69,0.11 -2.53,0.11 -7.38,0 -14.45,-2.61 -20.64,-7.18 0.02,1.06 0.07,2.12 0.15,3.2 1.51,18.79 12.79,33.35 25.56,33.43 0.04,0 0.08,0 0.11,0 l 0.01,0 c 0.44,0 0.89,-0.01 1.34,-0.05 l 0,0 c 12.39,-1 21.52,-15.42 21.52,-33.07 0,-1.38 -0.05,-2.77 -0.16,-4.18 -0.03,-0.28 -0.05,-0.57 -0.08,-0.85 -0.17,-1.77 -0.45,-3.48 -0.79,-5.16" /><path
             inkscape:connector-curvature="0"
             id="path5632"
             style="fill:#481834;fill-opacity:1;fill-rule:nonzero;stroke:none"
             d="m 3502.18,4032.93 c -1.39,-17.41 7.17,-32.34 19.1,-33.29 11.92,-0.97 22.76,12.42 24.16,29.82 1.39,17.4 -7.18,32.36 -19.1,33.31 -11.93,0.96 -22.76,-12.43 -24.16,-29.84 z m -5.13,0.41 c 1.73,21.54 15.14,38.08 29.88,36.9 14.76,-1.18 25.36,-19.65 23.63,-41.19 -1.72,-21.53 -15.13,-38.07 -29.88,-36.89 -14.75,1.18 -25.36,19.66 -23.63,41.18" /><path
             inkscape:connector-curvature="0"
             id="path5634"
             style="fill:#481834;fill-opacity:1;fill-rule:nonzero;stroke:none"
             d="m 3512.25,4032.12 c -0.74,-9.3 3.82,-17.28 10.21,-17.79 6.37,-0.51 12.15,6.63 12.9,15.94 0.75,9.31 -3.82,17.29 -10.2,17.8 -6.38,0.51 -12.17,-6.63 -12.91,-15.95" /><path
             inkscape:connector-curvature="0"
             id="path5636"
             style="fill:#ffffff;fill-opacity:1;fill-rule:nonzero;stroke:none"
             d="m 3523.86,4039.89 c -0.63,-7.71 3.15,-14.29 8.43,-14.71 5.28,-0.42 10.06,5.46 10.68,13.17 0.62,7.71 -3.16,14.3 -8.44,14.72 -5.28,0.43 -10.06,-5.47 -10.67,-13.18" /><path
             inkscape:connector-curvature="0"
             id="path5638"
             style="fill:#ffffff;fill-opacity:1;fill-rule:nonzero;stroke:none"
             d="m 3504.63,4013.29 c 2.49,-6.59 6.42,-10.29 8.75,-8.29 2.35,2.01 2.24,8.98 -0.24,15.56 -2.48,6.6 -6.4,10.3 -8.75,8.29 -2.35,-2 -2.24,-8.98 0.24,-15.56" /></g></g><path
         inkscape:connector-curvature="0"
         id="path5640"
         style="fill:#481834;fill-opacity:1;fill-rule:nonzero;stroke:none"
         d="m 3555.09,4047.62 c -4.68,6.06 -6.39,12.42 -12.82,16.66 -7.99,5.31 -17.26,6.76 -26.22,6.86 -9.92,0.11 -20.42,-3.63 -28.63,-11.8 -8.52,-8.49 -8.43,-21.53 -14.58,-31.46 -2.14,-3.47 -5.68,-3.22 -7.24,0.58 -5.68,13.92 2.9,32.45 10.99,42.33 9.41,11.53 22.75,15.01 34.67,16 12.07,1 57.61,-9.34 49.66,-37.6 -0.99,-3.55 -4.08,-3.81 -5.83,-1.57"
         transform="scale(0.1,0.1)" /><path
         inkscape:connector-curvature="0"
         id="path5642"
         style="fill:#481834;fill-opacity:1;fill-rule:nonzero;stroke:none"
         d="m 3541.46,3987.84 c -30.18,-15.43 -50.68,0.81 -64.73,15.67 -4.71,19.4 -5.55,44.06 -2.34,37.72 l -6.78,7.97 c -3.4,-6.4 -5.13,-30.33 0.21,-50.58 11.2,-12.05 23.14,-22.14 41.1,-23.59 9.91,-0.8 25.66,0.46 32.54,12.81"
         transform="scale(0.1,0.1)" /><path
         inkscape:connector-curvature="0"
         id="path5644"
         style="fill:#8c573d;fill-opacity:1;fill-rule:nonzero;stroke:none"
         d="m 3431.7,4161.82 c -2.91,5.43 -5.64,17.47 -5.09,34.81 22.42,12.08 37.86,23.07 62.97,6.28 21.95,-14.65 42.21,-31.84 63.65,-47.25 2.16,-1.55 5.77,-0.72 6.59,1.99 9.5,31.47 8.73,-1.46 6.61,-15.79 -1.56,-10.68 -1.12,-23.77 -14.07,-16.25 -16.4,9.52 -31.93,20.41 -48.57,29.52 -23.21,12.74 -50.48,21.52 -72.09,6.69"
         transform="scale(0.1,0.1)" /><path
         inkscape:connector-curvature="0"
         id="path5646"
         style="fill:#481834;fill-opacity:1;fill-rule:nonzero;stroke:none"
         d="m 3431.7,4161.82 c -2.91,5.43 -5.64,17.47 -5.09,34.81 22.42,12.08 37.86,23.07 62.97,6.28 21.95,-14.65 42.21,-31.84 63.65,-47.25 2.16,-1.55 5.77,-0.72 6.59,1.99 9.5,31.47 8.73,-1.46 6.61,-15.79 -1.56,-10.68 -1.12,-23.77 -14.07,-16.25 -16.4,9.52 -31.93,20.41 -48.57,29.52 -23.21,12.74 -50.48,21.52 -72.09,6.69 z m -10.32,-12.55 c 0.55,-5.2 7.12,-5.57 9.96,-2.25 35.78,41.86 89.82,-24.6 125.35,-34.27 27.95,-7.61 22.64,54.7 14.64,68.56 -1.26,2.16 -4.15,3.23 -6.25,1.4 -3.16,-2.79 -7.2,-5.66 -8.84,-9.76 -4.49,-11.16 -17.18,5.09 -22.89,9.65 -15.18,12.13 -31.38,26.75 -49.58,34.27 -32.49,13.42 -63.62,-12.43 -65.31,-18.99 -3.86,-15.1 1.31,-33.32 2.92,-48.61"
         transform="scale(0.1,0.1)" /><path
         inkscape:connector-curvature="0"
         id="path5648"
         style="fill:#8c573d;fill-opacity:1;fill-rule:nonzero;stroke:none"
         d="m 3649.72,4135.72 c 0.55,-1.2 1.06,-2.41 1.68,-3.63 1.1,-2.21 4.81,-2.82 6.42,-0.83 12.11,15.01 17.21,16.45 36.09,19.72 22.13,3.83 44.42,7.84 66.81,9.79 21.29,1.84 43.96,3.75 64.21,-18.68 3.28,-7.11 -0.37,-17.67 -2.32,-30.8 -27.32,22.64 -46.16,21.43 -81.24,13.36 -26.5,-6.1 -59.23,-9.55 -82.05,-25.85 -3.66,12.24 -7.59,24.45 -9.6,36.92"
         transform="scale(0.1,0.1)" /><path
         inkscape:connector-curvature="0"
         id="path5650"
         style="fill:#481834;fill-opacity:1;fill-rule:nonzero;stroke:none"
         d="m 3649.72,4135.72 c 0.55,-1.2 1.06,-2.41 1.68,-3.63 1.1,-2.21 4.81,-2.82 6.42,-0.83 12.11,15.01 17.21,16.45 36.09,19.72 22.13,3.83 44.42,7.84 66.81,9.79 21.29,1.84 43.96,3.75 64.21,-18.68 3.28,-7.11 -0.37,-17.67 -2.32,-30.8 -27.32,22.64 -46.16,21.43 -81.24,13.36 -26.5,-6.1 -59.23,-9.55 -82.05,-25.85 -3.66,12.24 -7.59,24.45 -9.6,36.92 z m -8.35,24.74 c -4.33,-26.58 3.26,-47.48 9.23,-73.15 1.03,-4.42 6.6,-5.37 9.66,-2.55 21.51,19.77 92.55,35.4 122.04,35.63 15.71,0.12 30.01,-11.82 42.08,-20.97 0.79,-3.34 4,1.96 4.4,5.84 2.74,27.27 14.52,28.25 -5.22,48.68 -13.82,14.29 -37.12,16.75 -57.17,15.51 -28.14,-1.76 -47.28,-4.24 -74.97,-9.44 -7.84,-1.47 -19.73,-1.81 -26.75,-5.93 -2.18,-1.28 -6.42,-8.33 -6.95,-9.53 -4.97,4.22 -7.99,9.52 -9.05,15.91 -1.08,3.22 -6.65,3.97 -7.3,0"
         transform="scale(0.1,0.1)" /><path
         inkscape:connector-curvature="0"
         id="path5652"
         style="fill:#ffffff;fill-opacity:1;fill-rule:nonzero;stroke:none"
         d="m 3679.78,4031.88 c 6.29,-13.69 21.86,-34.4 82.72,-31.45 48.02,37.02 39.5,27.45 39.95,41.38 0.46,13.96 -3.03,32.95 -58.23,27.37 -55.2,-5.58 -75.18,-13.97 -64.44,-37.3"
         transform="scale(0.1,0.1)" /><path
         inkscape:connector-curvature="0"
         id="path5654"
         style="fill:#481834;fill-opacity:1;fill-rule:nonzero;stroke:none"
         d="m 3738.18,3993.8 c 14.1,-0.46 25.13,2.71 33.18,6.56 19.1,9.1 33.54,27.53 38.64,49.28 l 0.44,1.86 -11.99,18.37 -9.17,-0.59 10.67,-19.22 c -4.76,-18.07 -16.93,-33.24 -32.82,-40.82 -19.31,-9.2 -39.51,-12.58 -66.73,0.6 2.51,-12.8 31.21,-15.82 37.78,-16.04"
         transform="scale(0.1,0.1)" /><g
         id="g5656"
         transform="scale(0.1,0.1)"><g
           clip-path="url(#clipPath5660)"
           id="g5658"><path
             inkscape:connector-curvature="0"
             id="path5664"
             style="fill:#9b5624;fill-opacity:1;fill-rule:nonzero;stroke:none"
             d="m 3713.12,4054.37 c -0.67,-20.55 15.43,-37.73 35.96,-38.41 20.53,-0.67 37.72,15.44 38.4,35.97 0.67,20.53 -15.44,37.73 -35.97,38.39 -20.53,0.67 -37.72,-15.42 -38.39,-35.95" /><path
             inkscape:connector-curvature="0"
             id="path5666"
             style="fill:#9b5624;fill-opacity:1;fill-rule:nonzero;stroke:none"
             d="m 3787.47,4051.71 c 0,0.07 0,0.15 0.01,0.22 0.01,0.4 0.02,0.8 0.02,1.2 0,-0.4 -0.01,-0.8 -0.02,-1.2 -0.01,-0.07 -0.01,-0.15 -0.01,-0.22 m -74.37,1.65 c 0,0.33 0.01,0.67 0.02,1.01 -0.01,-0.34 -0.02,-0.67 -0.02,-1.01" /><path
             inkscape:connector-curvature="0"
             id="path5668"
             style="fill:#5e2214;fill-opacity:1;fill-rule:nonzero;stroke:none"
             d="m 3786.69,4045.58 c -10.48,8.06 -23.91,13.15 -38.69,13.62 -0.78,0.03 -1.55,0.04 -2.33,0.04 -11.88,0 -23.01,-3.03 -32.5,-8.26 -0.04,0.79 -0.07,1.58 -0.07,2.38 0,0.34 0.01,0.67 0.02,1.01 l 0,0 c 0.11,3.56 0.73,6.98 1.77,10.21 1.62,0.51 3.23,1.03 4.82,1.55 14.21,4.6 27.47,9.13 41.04,9.13 7.31,0 14.7,-1.31 22.38,-4.62 2.8,-5.23 4.37,-11.2 4.37,-17.51 0,-0.4 -0.01,-0.8 -0.02,-1.2 -0.01,-0.07 -0.01,-0.15 -0.01,-0.22 -0.08,-2.1 -0.37,-4.14 -0.78,-6.13" /><path
             inkscape:connector-curvature="0"
             id="path5670"
             style="fill:#481834;fill-opacity:1;fill-rule:nonzero;stroke:none"
             d="m 3717.06,4054.24 c -0.61,-18.34 13.82,-33.74 32.14,-34.33 18.34,-0.62 33.74,13.81 34.34,32.15 0.6,18.33 -13.82,33.73 -32.16,34.33 -18.33,0.6 -33.73,-13.83 -34.32,-32.15 z m -7.88,0.26 c 0.73,22.67 19.79,40.5 42.46,39.76 22.67,-0.73 40.52,-19.79 39.77,-42.46 -0.73,-22.67 -19.79,-40.52 -42.46,-39.78 -22.67,0.75 -40.52,19.8 -39.77,42.48" /><path
             inkscape:connector-curvature="0"
             id="path5672"
             style="fill:#481834;fill-opacity:1;fill-rule:nonzero;stroke:none"
             d="m 3732.53,4053.73 c -0.31,-9.8 7.38,-18.02 17.18,-18.34 9.81,-0.32 18.02,7.37 18.35,17.17 0.32,9.81 -7.38,18.03 -17.19,18.35 -9.8,0.32 -18.02,-7.37 -18.34,-17.18" /><path
             inkscape:connector-curvature="0"
             id="path5674"
             style="fill:#ffffff;fill-opacity:1;fill-rule:nonzero;stroke:none"
             d="m 3755.94,4055.51 c -0.26,-8.13 6.1,-14.92 14.21,-15.19 8.11,-0.25 14.91,6.1 15.18,14.21 0.26,8.12 -6.11,14.9 -14.21,15.17 -8.12,0.27 -14.91,-6.09 -15.18,-14.19" /><path
             inkscape:connector-curvature="0"
             id="path5676"
             style="fill:#ffffff;fill-opacity:1;fill-rule:nonzero;stroke:none"
             d="m 3722.54,4033.68 c 4.39,-6.83 10.71,-10.59 14.12,-8.4 3.41,2.18 2.63,9.51 -1.74,16.34 -4.4,6.84 -10.72,10.59 -14.13,8.4 -3.41,-2.19 -2.64,-9.52 1.75,-16.34" /></g></g><path
         inkscape:connector-curvature="0"
         id="path5678"
         style="fill:#481834;fill-opacity:1;fill-rule:nonzero;stroke:none"
         d="m 3667.34,4038.96 c 9.56,25.18 54.72,32.65 78.33,35.5 17.51,2.13 59.3,5.71 65.28,-17.08 0.93,-3.54 -3.12,-6.74 -6.39,-5.44 -23.34,9.36 -41.84,9.75 -67.08,7.04 -25.67,-2.75 -45.63,-13.9 -69.73,-20.5 l -0.41,0.48"
         transform="scale(0.1,0.1)" /><path
         transform="matrix(0.8,0,0,-0.8,0,500)"
         inkscape:connector-curvature="0"
         id="path5919"
         d="m 487.25049,257.41271 c -0.20312,-0.52933 -0.73166,-2.38281 -1.17452,-4.11883 l -0.8052,-3.15639 4.6763,-3.33845 c 6.80075,-4.85512 10.5574,-7.05005 19.07028,-11.14239 8.26729,-3.97429 11.09596,-6.47138 11.09596,-9.79528 0,-1.09079 -0.73157,-5.16453 -1.62571,-9.05275 -0.89415,-3.88823 -2.23809,-12.28335 -2.98655,-18.65583 -0.74846,-6.37248 -1.98926,-13.48301 -2.75734,-15.80117 -1.84446,-5.56683 -5.49306,-9.27715 -12.0703,-12.27449 -5.28019,-2.40627 -10.4556,-6.64761 -12.1527,-9.95938 -0.56949,-1.11132 -1.74515,-2.87083 -2.61258,-3.91004 l -1.57715,-1.88946 2.95768,-2.60345 c 3.98559,-3.50826 6.21195,-8.43591 7.22519,-15.99168 0.46372,-3.45798 1.03923,-5.73715 1.33012,-5.26763 0.84649,1.36629 5.9162,0.96948 9.10298,-0.71251 7.7577,-4.09453 10.79525,-14.9347 5.71955,-20.41148 -1.49232,-1.61024 -1.49506,-1.6486 -0.37222,-5.22855 1.42965,-4.558144 1.53157,-11.822241 0.21023,-14.984628 -0.55099,-1.318712 -0.92341,-2.426396 -0.82759,-2.461521 4.22257,-1.547955 3.84567,-3.143474 -1.59731,-6.76196 -2.65076,-1.762225 -7.3641,-5.61549 -10.47408,-8.562813 -10.02242,-9.498225 -13.16911,-10.468419 -31.78247,-9.799232 -9.34526,0.33598 -11.50595,0.620393 -14.94866,1.967705 -2.21343,0.866227 -4.48224,1.574958 -5.04181,1.574958 -0.55957,0 -1.77493,0.595868 -2.70079,1.324152 -0.92586,0.728284 -2.54635,1.324153 -3.60108,1.324153 -2.63709,0 -7.22925,3.061209 -11.01454,7.342476 -6.04619,6.8384 -8.83338,13.335363 -9.48945,22.119918 -0.42261,5.658482 -0.12371,6.074292 1.39203,1.936477 l 0.95189,-2.598554 0.0503,2.317267 c 0.0784,3.606322 1.25247,7.045002 3.19287,9.351042 1.78152,2.1172 3.99808,7.2529 4.62033,10.70508 0.1833,1.01697 -0.16272,3.61674 -0.76894,5.77728 -1.36503,4.86494 -0.8924,6.95877 3.5808,15.86346 1.74163,3.46702 4.07745,8.24553 5.19072,10.61892 2.06265,4.39742 4.70305,7.01281 7.97574,7.90022 1.70363,0.46194 1.6768,0.50349 -1.23797,1.91664 -8.12544,3.9394 -15.0716,8.74875 -19.98155,13.83476 l -4.42276,4.58133 -1.98085,-4.35673 c -1.08947,-2.3962 -2.34918,-5.62295 -2.79936,-7.17055 -0.86585,-2.97658 -1.25143,-3.22521 -3.30074,-2.12846 -0.70435,0.37696 -1.31173,0.45144 -1.34973,0.16552 -0.038,-0.28591 -0.15684,-3.00353 -0.26408,-6.03915 -0.17415,-4.92952 -0.48513,-6.10223 -2.91024,-10.9747 -1.49338,-3.00048 -2.71525,-6.11493 -2.71525,-6.92101 0,-2.25529 2.4992,-6.74259 5.46822,-9.81816 l 2.68143,-2.77767 -2.35343,-2.35342 c -1.97573,-1.97573 -2.81562,-2.35326 -5.23345,-2.3524 -6.00528,0.002 -11.07381,4.76159 -12.49919,11.73699 -1.01302,4.95743 -2.09436,6.13804 -5.62192,6.13804 -1.87803,0 -3.41059,0.48416 -4.69744,1.48397 -2.46248,1.91322 -4.17739,3.93102 -4.20524,4.94798 -0.0121,0.44237 -0.61481,1.12155 -1.33933,1.5093 -0.72451,0.38775 -1.80422,1.64661 -2.39935,2.79746 -0.59513,1.15086 -1.6889,2.58386 -2.43059,3.18445 -3.07157,2.4872 -0.42317,12.38021 3.90011,14.56872 1.10357,0.55864 3.32685,2.08341 4.94063,3.38838 3.59879,2.91012 4.8862,3.57188 8.06524,4.14576 1.91788,0.3462 2.48279,0.75766 2.48279,1.80834 0,1.57888 11.80803,21.48991 14.69293,24.77563 2.89619,3.29857 8.50249,5.85118 11.58211,5.27343 4.10185,-0.76951 8.65334,-3.50035 12.8821,-7.72912 l 4.02188,-4.02188 -0.48011,3.54793 c -0.26406,1.95137 -0.75439,3.65092 -1.08961,3.77678 -0.33522,0.12587 -1.4724,0.95494 -2.52707,1.84238 -2.34182,1.97051 -3.6052,5.52393 -3.03832,8.54566 0.47934,2.55508 3.09816,5.99196 5.0339,6.60633 1.89765,0.60229 1.71172,6.05888 -0.454,13.32375 -0.96198,3.22698 -2.55764,8.92774 -3.54592,12.66836 -0.98827,3.74063 -1.96009,6.96437 -2.1596,7.16389 -0.19952,0.19951 -2.40251,-0.44554 -4.89556,-1.43344 -34.97006,-13.85736 -60.16612,-44.70726 -66.42772,-81.33368 -1.48049,-8.65993 -1.7963,-24.40071 -0.65197,-32.49557 7.89143,-55.822837 58.05495,-96.230287 113.83408,-91.69502 26.20666,2.1308 48.20843,12.341708 66.94405,31.068395 22.40128,22.390595 33.3747,51.708595 31.03249,82.910445 -1.12876,15.03683 -4.58584,27.21008 -11.62783,40.94447 -12.56473,24.50572 -33.655,42.82604 -59.76261,51.9135 -5.55997,1.9353 -6.81704,2.18027 -7.12117,1.38773 z"
         style="fill:#00ffff" /><path
         transform="matrix(0.8,0,0,-0.8,0,500)"
         inkscape:connector-curvature="0"
         id="path5921"
         d="m 486.62597,254.01566 c -0.60208,-2.07107 -0.82232,-3.90775 -0.49621,-4.13798 7.25144,-5.11948 14.13204,-9.3415 21.07306,-12.9307 4.73385,-2.44787 9.57528,-5.38392 10.75874,-6.52455 2.61204,-2.51752 2.72928,-4.37988 0.85788,-13.62751 -0.71162,-3.51654 -2.05365,-11.72961 -2.98227,-18.25125 -0.92863,-6.52164 -2.01612,-13.07452 -2.41664,-14.56195 -1.78711,-6.63682 -5.05191,-10.26689 -12.87186,-14.31198 -5.68617,-2.94132 -9.45094,-6.26829 -12.84557,-11.3518 l -2.70026,-4.04367 3.21735,-3.40188 c 3.45032,-3.6482 5.57979,-8.32694 6.35451,-13.96166 0.77553,-5.64071 0.76527,-5.62764 4.42317,-5.62764 7.82845,0 14.06112,-6.60567 14.1302,-14.97584 0.0276,-3.34822 -0.26978,-4.47815 -1.71321,-6.50881 -1.69882,-2.38994 -1.7217,-2.55096 -0.83545,-5.87957 1.07694,-4.044841 1.21138,-12.188033 0.24325,-14.734399 -0.56733,-1.492204 -0.4515,-2.04529 0.68079,-3.250558 1.87256,-1.993249 1.2852,-3.027322 -3.85909,-6.794092 -2.4277,-1.777615 -7.21311,-5.70557 -10.63424,-8.72879 -3.42113,-3.023221 -7.89015,-6.279816 -9.93114,-7.236878 -3.63118,-1.702732 -4.00248,-1.739909 -17.28346,-1.730597 -13.0356,0.0091 -13.79918,0.08268 -19.30055,1.858848 -3.15039,1.017133 -6.86309,2.428039 -8.25043,3.135346 -1.38734,0.707307 -3.17436,1.286014 -3.97116,1.286014 -1.97723,0 -7.81364,4.500992 -11.21818,8.65136 -5.37481,6.552272 -8.48918,15.122319 -8.09745,22.282381 l 0.20928,3.825265 0.92254,-1.98623 0.92253,-1.98623 0.50613,3.17321 c 0.27838,1.74526 1.40782,4.57836 2.50988,6.29577 4.05311,6.31623 4.94427,9.17855 4.35567,13.99008 -1.14282,9.34218 -1.10678,9.49779 5.10993,22.06528 4.35167,8.7972 6.28186,12.01009 8.00461,13.3241 1.24859,0.95234 2.61447,1.73154 3.03527,1.73154 1.74758,0 0.53224,1.1621 -3.04184,2.90857 -6.12216,2.99158 -12.52855,7.53515 -17.40388,12.34323 l -4.54141,4.47878 -2.11075,-5.06524 c -1.16091,-2.78588 -2.4075,-5.91392 -2.77019,-6.9512 -0.56204,-1.6074 -0.92816,-1.83222 -2.47872,-1.52211 l -1.81928,0.36386 -0.29285,-5.76074 c -0.24863,-4.89085 -0.66052,-6.5496 -2.72774,-10.98505 -1.33919,-2.87339 -2.43489,-6.16682 -2.43489,-7.31874 0,-2.36494 2.73618,-6.98957 5.87662,-9.93252 l 2.08216,-1.95121 -2.45857,-2.5178 c -2.17869,-2.23118 -2.82385,-2.5178 -5.66745,-2.5178 -1.7649,0 -4.01342,0.42031 -4.99673,0.93401 -3.63754,1.90033 -6.78483,6.37123 -7.73177,10.98337 -0.79172,3.85617 -2.0046,5.16638 -5.23039,5.65011 -3.8,0.56985 -6.41113,2.20465 -8.76845,5.48987 -1.04816,1.46072 -3.34343,4.5422 -5.10061,6.84771 -2.94437,3.86319 -3.16597,4.41265 -2.8262,7.0078 0.45706,3.49106 2.54874,7.69593 4.52764,9.10184 0.82139,0.58356 3.33273,2.39867 5.58076,4.03357 2.24803,1.63491 5.37634,3.34497 6.9518,3.80013 2.11488,0.61101 3.10115,1.3402 3.76887,2.78646 2.12129,4.5946 13.08613,22.37944 15.03423,24.38534 2.61482,2.69239 7.47314,5.04971 10.40721,5.04971 3.17771,0 8.60502,-2.94492 13.1045,-7.11064 l 3.91566,-3.62521 0,2.10946 c 0,1.58813 -0.66485,2.7677 -2.69018,4.7729 -2.96921,2.93968 -3.93058,4.89061 -3.93058,7.9764 0,2.50008 2.84908,7.55882 4.56361,8.10299 2.7076,0.85936 2.22593,5.31393 -2.34486,21.68603 -3.6346,13.01874 -2.3336,12.25123 -12.81197,7.55818 -30.67289,-13.73779 -53.66278,-42.35275 -60.62742,-75.46149 -1.54621,-7.35046 -2.30378,-22.12868 -1.59767,-31.16639 3.17891,-40.6874 32.39987,-77.662886 71.72968,-90.764943 19.79177,-6.593295 41.18969,-7.299579 61.41099,-2.027 33.31272,8.686085 62.05643,35.802459 73.17615,69.033243 12.80235,38.25928 2.94507,79.55115 -25.89803,108.48617 -11.93788,11.97593 -25.20668,20.3159 -40.60153,25.5197 -3.12084,1.0549 -5.75901,1.91801 -5.8626,1.91801 -0.10359,0 -0.67551,-1.67579 -1.27094,-3.72399 z"
         style="fill:#4681c0;fill-opacity:0.00392157" /><path
         transform="matrix(0.8,0,0,-0.8,0,500)"
         inkscape:connector-curvature="0"
         id="path6737"
         d="m 487.47887,257.03476 c -0.65168,-1.21767 -1.85272,-6.24594 -1.63032,-6.82549 0.43342,-1.12948 13.69375,-9.54826 20.04033,-12.72329 11.56857,-5.78747 14.28319,-7.99792 14.28679,-11.63342 8.7e-4,-0.90663 -0.57726,-4.54037 -1.2848,-8.07498 -1.39248,-6.95628 -2.2437,-12.21363 -3.30203,-20.3941 -1.74726,-13.50554 -3.25043,-18.3376 -6.84219,-21.99479 -2.04976,-2.08709 -5.38388,-4.38554 -7.86617,-5.4227 -4.46165,-1.8642 -10.3661,-6.75837 -12.40619,-10.28344 -0.64274,-1.1106 -1.7465,-2.75904 -2.45279,-3.66321 l -1.28417,-1.64394 2.58627,-2.50267 c 4.2924,-4.15368 5.7321,-7.23388 7.2486,-15.50827 l 0.94366,-5.14885 3.71013,-0.0896 c 3.25074,-0.0786 4.00739,-0.25731 6.1108,-1.44374 4.63571,-2.61476 7.85674,-8.06623 7.85674,-13.29724 0,-2.8665 -0.72786,-5.01726 -2.47168,-7.30352 l -1.13522,-1.48834 0.93048,-3.79406 c 1.20126,-4.898174 1.25147,-11.470024 0.11282,-14.765823 -0.74074,-2.144043 -0.7434,-2.298739 -0.0433,-2.520936 1.29873,-0.412201 2.27399,-1.819456 1.95577,-2.822084 -0.16135,-0.508345 -2.48697,-2.570613 -5.16805,-4.582818 -2.68108,-2.012204 -7.39678,-5.913663 -10.47933,-8.669908 -9.34408,-8.354963 -11.69084,-9.175064 -26.04343,-9.101178 -5.16301,0.02658 -11.05557,0.241324 -13.09457,0.477211 -3.92378,0.453934 -11.97022,2.914719 -15.26377,4.668013 -1.08221,0.576094 -2.47078,1.047443 -3.08574,1.047443 -4.44869,0 -13.04706,8.234909 -16.98224,16.264376 -2.12093,4.327612 -2.94755,7.456057 -3.49331,13.220833 -0.47429,5.009871 -0.0473,6.129991 1.24028,3.253971 l 0.84765,-1.89327 0.31791,2.14559 c 0.46542,3.14115 1.24649,5.08912 3.18536,7.94423 2.19448,3.23152 3.97343,7.44527 4.29714,10.17857 0.1562,1.31883 -0.0529,3.63072 -0.54958,6.07757 -1.10443,5.44038 -0.75029,6.77853 4.9208,18.59354 5.42971,11.31212 6.84288,13.42258 10.03552,14.98723 1.24301,0.60918 2.27153,1.25272 2.28561,1.43009 0.0141,0.17737 -1.59485,1.13385 -3.5754,2.1255 -7.34392,3.67708 -15.94751,10.02438 -20.05877,14.79836 -1.03105,1.19726 -2.00354,2.17692 -2.16108,2.17704 -0.34406,2.6e-4 -3.99543,-8.61462 -4.76591,-11.24448 -0.71395,-2.4369 -1.40041,-3.00548 -2.83785,-2.35053 -0.60436,0.27536 -1.286,0.50066 -1.51478,0.50066 -0.22877,0 -0.41983,-1.42404 -0.42459,-3.16453 -0.0153,-5.60058 -0.71167,-8.74708 -3.08618,-13.94472 -1.22212,-2.67514 -2.32906,-5.52337 -2.45986,-6.3294 -0.33112,-2.04044 1.84148,-6.18038 5.19102,-9.89164 1.45199,-1.60878 2.53145,-3.17958 2.40732,-3.50305 -0.42687,-1.11241 -4.20803,-3.84769 -5.82215,-4.21174 -3.11252,-0.70199 -6.65635,0.46461 -9.57003,3.15035 -2.32392,2.14211 -3.75085,4.73404 -4.76869,8.662 -1.1799,4.55337 -1.99429,5.6625 -4.15777,5.6625 -0.44868,0 -1.79543,0.2101 -2.99278,0.46688 -2.45055,0.52555 -5.71874,3.07338 -6.88382,5.36653 -0.38244,0.75273 -1.30884,1.95892 -2.05867,2.68041 -0.74983,0.7215 -2.05079,2.26944 -2.89103,3.43987 -3.3921,4.72513 -3.62177,5.79062 -2.21946,10.29625 1.02496,3.29322 2.307,5.2251 4.36253,6.57387 0.86188,0.56553 3.2999,2.29678 5.41782,3.84723 2.82904,2.07104 4.61174,3.03001 6.71882,3.61429 1.57744,0.43741 2.90621,0.84904 2.95283,0.91474 0.0466,0.0657 0.71641,1.48959 1.48843,3.16419 3.31648,7.19393 13.04059,22.51613 15.45962,24.35964 2.33279,1.77779 5.93223,3.40414 8.08343,3.65237 3.82121,0.44095 8.8337,-2.126 14.88988,-7.62527 3.72681,-3.3841 3.90178,-3.36624 3.05392,0.3117 -0.34085,1.47855 -1.02899,2.48407 -2.99877,4.3818 -2.63079,2.53458 -3.51382,4.37988 -3.51887,7.3535 -0.005,2.76885 1.86933,5.97579 4.56084,7.80472 1.85601,1.26119 2.18691,2.69736 1.56458,6.79058 -0.45176,2.97134 -6.622,25.85964 -7.10017,26.3378 -0.42336,0.42337 -7.83249,-2.54701 -13.55088,-5.43266 -21.07615,-10.63557 -37.58574,-27.27379 -47.90837,-48.28166 -5.09292,-10.36473 -8.31939,-20.50711 -9.81938,-30.86715 -0.90013,-6.217 -1.28579,-20.84448 -0.70759,-26.83797 1.37991,-14.30368 6.30205,-29.36218 13.79372,-42.19967 4.68175,-8.022482 10.06776,-14.955722 17.01535,-21.903311 13.90769,-13.907697 30.039,-23.200985 48.41596,-27.89255 10.36785,-2.646873 14.06557,-3.070589 26.68817,-3.058154 12.37884,0.01219 16.9636,0.557316 27.5243,3.272601 26.42684,6.794659 50.60789,25.754694 65.1444,51.078864 14.64889,25.51992 17.51264,57.45737 7.71154,86.00162 -1.91429,5.5751 -7.03227,16.21363 -10.47443,21.77276 -7.91114,12.77658 -19.25375,24.45589 -31.63909,32.57829 -7.94115,5.20787 -19.69474,10.76019 -27.1667,12.83338 -2.76769,0.76793 -2.97002,0.77224 -3.34519,0.0712 z"
         style="fill:#4681c0;fill-opacity:1;stroke:#5a0000;stroke-width:0.43648568;stroke-opacity:1" /></g></g></svg>